<?xml version="1.0" encoding="UTF-8" standalone="no"?><!DOCTYPE svg PUBLIC "-//W3C//DTD SVG 1.1//EN" "http://www.w3.org/Graphics/SVG/1.1/DTD/svg11.dtd"><svg width="100%" height="100%" viewBox="0 0 2084 2084" version="1.1" xmlns="http://www.w3.org/2000/svg" xmlns:xlink="http://www.w3.org/1999/xlink" xml:space="preserve" xmlns:serif="http://www.serif.com/" style="fill-rule:evenodd;clip-rule:evenodd;stroke-linejoin:round;stroke-miterlimit:2;"><g id="LOGO-BG" serif:id="LOGO BG"><circle cx="1041.667" cy="1041.667" r="1041.667" style="fill:#2c0a71;"/><path d="M966.384,5.154c-46.314,215.28 -117.931,450.999 -214.001,692.442c-157.767,396.496 -352.845,736.467 -543.204,969.98c-131.307,-174.301 -209.179,-391.082 -209.179,-625.909c0,-539.756 411.417,-984.178 937.495,-1036.513l28.89,0Z" style="fill:#52368b;"/><path d="M1089.704,2082.243c57.137,-252.398 156.409,-540.131 294.434,-834.526c151.591,-323.331 326.902,-605.589 499.599,-819.034c125.505,172.04 199.597,383.927 199.597,612.984c0,558.812 -440.979,1015.44 -993.629,1040.576Z" style="fill:#52368b;"/></g><g id="AINT-LETTERING" serif:id="AINT LETTERING"><g id="A-W-BLOCK" serif:id="A W BLOCK"><g transform="matrix(1,0,0,0.998559,-0,-48.311464)"><g transform="matrix(1959.803001,0,0,1959.803001,1695.253312,1758.987153)"></g><text x="388.08px" y="1758.987px" style="font-family:'ArialMT', 'Arial', sans-serif;font-size:1959.803px;fill:#fff;">A</text></g><rect id="A-CENTRE-BLOCK" serif:id="A CENTRE BLOCK" x="815.175" y="1088.408" width="426.188" height="258.882" style="fill:#2c0a71;"/></g><g transform="matrix(0.988697,0,0,1,-6.718094,0)"><g transform="matrix(244.617599,0,0,244.617599,1248.431888,1296.999022)"></g><text x="854.392px" y="1296.999px" style="font-family:'ArialMT', 'Arial', sans-serif;font-size:244.618px;fill:#fff;">INT</text></g></g></svg>