<?xml version="1.0" encoding="UTF-8" standalone="no"?><!DOCTYPE svg PUBLIC "-//W3C//DTD SVG 1.1//EN" "http://www.w3.org/Graphics/SVG/1.1/DTD/svg11.dtd"><svg width="100%" height="100%" viewBox="0 0 2084 2084" version="1.1" xmlns="http://www.w3.org/2000/svg" xmlns:xlink="http://www.w3.org/1999/xlink" xml:space="preserve" xmlns:serif="http://www.serif.com/" style="fill-rule:evenodd;clip-rule:evenodd;stroke-linejoin:round;stroke-miterlimit:2;"><path id="BG" d="M2083.333,520.833l0,1041.667c0,287.456 -233.378,520.833 -520.833,520.833l-1041.667,0c-287.456,0 -520.833,-233.378 -520.833,-520.833l0,-1041.667c0,-287.456 233.378,-520.833 520.833,-520.833l1041.667,0c287.456,0 520.833,233.378 520.833,520.833Z" style="fill:#ea580c;"/><g id="CURVES"><path d="M916.945,1343.175l-41.388,-108.791l-352.388,0l-41.388,111.156c-16.161,43.359 -29.957,72.626 -41.388,87.801c-11.431,15.176 -30.154,22.763 -56.169,22.763c-22.073,0 -41.585,-8.08 -58.534,-24.241c-16.949,-16.161 -25.424,-34.49 -25.424,-54.987c0,-11.825 1.971,-24.044 5.913,-36.658c3.942,-12.613 10.445,-30.154 19.511,-52.622l221.72,-562.874c6.307,-16.161 13.894,-35.574 22.763,-58.239c8.869,-22.665 18.329,-41.486 28.38,-56.465c10.051,-14.978 23.256,-27.099 39.614,-36.362c16.358,-9.263 36.559,-13.894 60.604,-13.894c24.439,0 44.837,4.631 61.195,13.894c16.358,9.263 29.563,21.187 39.614,35.771c10.051,14.584 18.526,30.253 25.424,47.005c6.898,16.752 15.668,39.121 26.311,67.107l226.45,559.326c17.738,42.57 26.606,73.513 26.606,92.827c0,20.103 -8.376,38.53 -25.128,55.282c-16.752,16.752 -36.953,25.128 -60.604,25.128c-13.796,0 -25.621,-2.464 -35.475,-7.391c-9.854,-4.927 -18.132,-11.628 -24.833,-20.103c-6.701,-8.475 -13.894,-21.482 -21.581,-39.023c-7.686,-17.541 -14.289,-33.012 -19.807,-46.413Zm-347.657,-240.64l258.969,0l-130.667,-357.709l-128.302,357.709Z" style="fill:#fff;fill-rule:nonzero;"/><path d="M1606.281,1365.052c-39.023,30.351 -76.765,53.114 -113.225,68.29c-36.461,15.176 -77.356,22.763 -122.685,22.763c-41.388,0 -77.75,-8.179 -109.086,-24.537c-31.336,-16.358 -55.479,-38.53 -72.429,-66.516c-16.949,-27.986 -25.424,-58.337 -25.424,-91.053c0,-44.147 13.993,-81.79 41.979,-112.93c27.986,-31.139 66.418,-52.03 115.295,-62.673c10.248,-2.365 35.672,-7.686 76.272,-15.964c40.599,-8.278 75.385,-15.865 104.356,-22.763c28.971,-6.898 60.406,-15.274 94.305,-25.128c-1.971,-42.57 -10.544,-73.808 -25.72,-93.714c-15.176,-19.906 -46.611,-29.858 -94.305,-29.858c-40.994,0 -71.837,5.715 -92.531,17.146c-20.694,11.431 -38.432,28.577 -53.213,51.439c-14.781,22.862 -25.227,37.939 -31.336,45.231c-6.11,7.292 -19.216,10.938 -39.318,10.938c-18.132,0 -33.8,-5.814 -47.005,-17.442c-13.205,-11.628 -19.807,-26.508 -19.807,-44.64c0,-28.38 10.051,-55.972 30.154,-82.776c20.103,-26.804 51.439,-48.877 94.009,-66.22c42.57,-17.343 95.586,-26.015 159.047,-26.015c70.951,0 126.725,8.376 167.325,25.128c40.599,16.752 69.275,43.26 86.027,79.524c16.752,36.264 25.128,84.352 25.128,144.266c0,37.84 -0.099,69.965 -0.296,96.374c-0.197,26.409 -0.493,55.775 -0.887,88.097c0,30.351 5.026,61.983 15.077,94.896c10.051,32.913 15.077,54.1 15.077,63.56c0,16.555 -7.785,31.632 -23.355,45.231c-15.57,13.599 -33.209,20.398 -52.917,20.398c-16.555,0 -32.913,-7.785 -49.074,-23.355c-16.161,-15.57 -33.307,-38.136 -51.439,-67.699Zm-10.643,-233.545c-23.65,8.672 -58.041,17.836 -103.174,27.493c-45.132,9.657 -76.37,16.752 -93.714,21.285c-17.343,4.533 -33.899,13.402 -49.665,26.606c-15.767,13.205 -23.65,31.632 -23.65,55.282c0,24.439 9.263,45.231 27.789,62.377c18.526,17.146 42.767,25.72 72.724,25.72c31.928,0 61.392,-6.997 88.393,-20.99c27.001,-13.993 46.808,-32.026 59.421,-54.1c14.584,-24.439 21.876,-64.644 21.876,-120.616l0,-23.059Z" style="fill:#fff;fill-rule:nonzero;"/></g></svg>