<?xml version="1.0" encoding="UTF-8" standalone="no"?><!DOCTYPE svg PUBLIC "-//W3C//DTD SVG 1.1//EN" "http://www.w3.org/Graphics/SVG/1.1/DTD/svg11.dtd"><svg width="100%" height="100%" viewBox="0 0 2084 2084" version="1.1" xmlns="http://www.w3.org/2000/svg" xmlns:xlink="http://www.w3.org/1999/xlink" xml:space="preserve" xmlns:serif="http://www.serif.com/" style="fill-rule:evenodd;clip-rule:evenodd;stroke-linejoin:round;stroke-miterlimit:2;"><path id="BG" d="M2083.333,520.833l0,1041.667c0,287.456 -233.378,520.833 -520.833,520.833l-1041.667,0c-287.456,0 -520.833,-233.378 -520.833,-520.833l0,-1041.667c0,-287.456 233.378,-520.833 520.833,-520.833l1041.667,0c287.456,0 520.833,233.378 520.833,520.833Z" style="fill:#ea580c;"/><g transform="matrix(1210.88864,0,0,1210.88864,1138.665475,1441.323534)"></g><text x="267.748px" y="1441.324px" style="font-family:'ArialRoundedMTBold', 'Arial Rounded MT Bold', sans-serif;font-size:1210.889px;fill:#fff;">A</text><g transform="matrix(1210.88864,0,0,1210.88864,1834.505458,1441.323534)"></g><text x="1114.949px" y="1441.324px" style="font-family:'ArialRoundedMTBold', 'Arial Rounded MT Bold', sans-serif;font-size:1210.889px;fill:#fff;">a</text><path d="M276.516,482.334c-11.506,-0 -20.833,-9.327 -20.833,-20.833l0,-96.636c0,-11.506 9.327,-20.833 20.833,-20.833l1341.357,-0c11.506,-0 20.833,-9.327 20.833,-20.833c-0,-15.502 -0,-37.34 -0,-57.294c-0,-8.426 5.076,-16.023 12.861,-19.248c7.785,-3.225 16.746,-1.442 22.704,4.516c43.843,43.843 116.339,116.339 147.279,147.279c8.136,8.136 8.136,21.327 -0,29.463c-30.94,30.94 -103.436,103.436 -147.279,147.279c-5.958,5.958 -14.919,7.741 -22.704,4.516c-7.785,-3.225 -12.861,-10.821 -12.861,-19.248c-0,-19.954 -0,-41.792 -0,-57.294c-0,-11.506 -9.327,-20.833 -20.833,-20.833c-159.262,-0 -1182.094,-0 -1341.357,-0Z" style="fill:#fff;"/><path d="M1806.818,1739.301c11.506,-0 20.833,-9.327 20.833,-20.833l0,-96.636c-0,-11.506 -9.327,-20.833 -20.833,-20.833l-1341.357,-0c-11.506,-0 -20.833,-9.327 -20.833,-20.833c0,-15.502 0,-37.34 0,-57.294c0,-8.426 -5.076,-16.023 -12.861,-19.248c-7.785,-3.225 -16.746,-1.442 -22.704,4.516c-43.843,43.843 -116.339,116.339 -147.279,147.279c-8.136,8.136 -8.136,21.327 0,29.463c30.94,30.94 103.436,103.436 147.279,147.279c5.958,5.958 14.919,7.741 22.704,4.516c7.785,-3.225 12.861,-10.821 12.861,-19.248c0,-19.954 0,-41.792 0,-57.294c0,-11.506 9.327,-20.833 20.833,-20.833c159.262,-0 1182.094,-0 1341.357,-0Z" style="fill:#fff;"/></svg>