<?xml version="1.0" encoding="UTF-8" standalone="no"?><!DOCTYPE svg PUBLIC "-//W3C//DTD SVG 1.1//EN" "http://www.w3.org/Graphics/SVG/1.1/DTD/svg11.dtd"><svg width="100%" height="100%" viewBox="0 0 2084 2084" version="1.1" xmlns="http://www.w3.org/2000/svg" xmlns:xlink="http://www.w3.org/1999/xlink" xml:space="preserve" xmlns:serif="http://www.serif.com/" style="fill-rule:evenodd;clip-rule:evenodd;stroke-linecap:round;stroke-linejoin:round;stroke-miterlimit:1.5;"><g id="LOGO"><g id="WINDOW"><path id="GREY-TOP" serif:id="GREY TOP" d="M2062.309,123.089l0,1837.156c0,56.331 -45.733,102.064 -102.064,102.064l-1837.156,0c-56.331,0 -102.064,-45.733 -102.064,-102.064l0,-1837.156c0,-56.331 45.733,-102.064 102.064,-102.064l1837.156,0c56.331,0 102.064,45.733 102.064,102.064Z" style="fill:none;stroke:#fff;stroke-width:41.67px;"/><path d="M2062.309,123.089l0,1837.156c0,56.331 -45.733,102.064 -102.064,102.064l-1837.156,0c-56.331,0 -102.064,-45.733 -102.064,-102.064l0,-1837.156c0,-56.331 45.733,-102.064 102.064,-102.064l1837.156,0c56.331,0 102.064,45.733 102.064,102.064Z" style="fill:#2e2e2e;"/><path id="MAIN" d="M21.024,1977.717l0,-1607.248l2041.285,0l0,1607.248c0,46.688 -41.38,84.592 -92.349,84.592l-1856.587,0c-50.969,0 -92.349,-37.904 -92.349,-84.592Z" style="fill:#0c0c0c;"/><g id="CONTROLS"><g id="CLOSE" transform="matrix(310.275266,0,0,310.275266,2010.909837,269.059777)"></g><text x="1823.502px" y="269.06px" style="font-family:'OCRAExtended', 'OCR A Extended', monospace;font-size:310.275px;fill:#fff;">x</text><rect id="FULLSCREEN" x="1579.31" y="137.451" width="116.524" height="117.018" style="fill:none;stroke:#fff;stroke-width:20.42px;"/><path id="MINIMISE" d="M1260.34,195.96l136.846,0" style="fill:none;stroke:#fff;stroke-width:20.42px;"/></g></g><g id="TAB"><path id="TAB1" serif:id="TAB" d="M21.024,370.469c34.908,0 63.249,-28.341 63.249,-63.249l0,-170.173c0,-32.207 26.148,-58.356 58.356,-58.356l728.743,0c32.207,0 58.356,26.148 58.356,58.356l0,170.173c0,34.908 28.341,63.249 63.249,63.249l0,63.737l-971.953,0l-0,-63.737Z" style="fill:#0c0c0c;"/><g transform="matrix(163.808328,0,0,163.808328,642.374688,280.369026)"></g><text x="372.187px" y="280.369px" style="font-family:'Consolas', monospace;font-size:163.808px;fill:#fff;">cmd</text><g id="Favicon"><rect x="135.525" y="164.192" width="173.737" height="120.776" style="fill:#fff;"/><rect x="141.01" y="187.69" width="162.766" height="90.279"/><g transform="matrix(67.93051,0,0,67.93051,295.564799,249.464052)"></g><text x="146.171px" y="249.464px" style="font-family:'Consolas', monospace;font-size:67.931px;fill:#fff;">C:\_</text><rect x="290.314" y="169.34" width="13.462" height="13.462" style="fill:#687991;"/><rect x="271.754" y="169.34" width="13.462" height="13.462" style="fill:#687991;"/><rect x="253.413" y="169.34" width="13.462" height="13.462" style="fill:#687991;"/></g></g><g id="Content"><g transform="matrix(435.859872,0,0,435.859872,805.576568,819.262215)"></g><text x="86.663px" y="819.262px" style="font-family:'Consolas', monospace;font-size:435.86px;fill:#fff;">C:\</text><g id="CLOCK"><path d="M1550.452,719.828c-0,-8.443 4.095,-16.361 10.985,-21.241c6.89,-4.88 15.718,-6.114 23.682,-3.312c230.88,81.588 396.499,301.876 396.499,560.541c0,327.984 -266.281,594.265 -594.265,594.265c-327.984,0 -594.265,-266.281 -594.265,-594.265c0,-258.767 165.75,-479.127 396.782,-560.61c7.895,-2.773 16.644,-1.545 23.471,3.293c6.827,4.838 10.885,12.686 10.885,21.054c0.029,2.847 0.029,5.645 0.029,8.296c-0,10.937 -6.888,20.69 -17.196,24.347c-206.595,74.04 -354.544,271.689 -354.544,503.62c0,295.186 239.653,534.839 534.839,534.839c295.186,0 534.839,-239.653 534.839,-534.839c0,-231.955 -147.98,-429.621 -354.602,-503.66c-10.262,-3.639 -17.12,-13.347 -17.12,-24.236c-0.017,-2.587 -0.017,-5.315 -0.017,-8.093Z" style="fill:#fff;stroke:#fff;stroke-width:20.83px;"/><g id="NOTCHES"><path d="M1411.906,803.199l0,115.496c0,6.776 -5.501,12.277 -12.277,12.277l-24.554,0c-6.776,0 -12.277,-5.501 -12.277,-12.277l0,-115.496c0,-6.776 5.501,-12.277 12.277,-12.277l24.554,0c6.776,0 12.277,5.501 12.277,12.277Z" style="fill:#fff;stroke:#fff;stroke-width:20.83px;"/><path d="M1411.906,1590.752l0,115.496c0,6.776 -5.501,12.277 -12.277,12.277l-24.554,0c-6.776,0 -12.277,-5.501 -12.277,-12.277l0,-115.496c0,-6.776 5.501,-12.277 12.277,-12.277l24.554,0c6.776,0 12.277,5.501 12.277,12.277Z" style="fill:#fff;stroke:#fff;stroke-width:20.83px;"/><path d="M1838.876,1279.278l-115.496,0c-6.776,0 -12.277,-5.501 -12.277,-12.277l0,-24.554c0,-6.776 5.501,-12.277 12.277,-12.277l115.496,0c6.776,0 12.277,5.501 12.277,12.277l0,24.554c0,6.776 -5.501,12.277 -12.277,12.277Z" style="fill:#fff;stroke:#fff;stroke-width:20.83px;"/><path d="M1051.324,1279.278l-115.496,0c-6.776,0 -12.277,-5.501 -12.277,-12.277l0,-24.554c0,-6.776 5.501,-12.277 12.277,-12.277l115.496,0c6.776,0 12.277,5.501 12.277,12.277l0,24.554c0,6.776 -5.501,12.277 -12.277,12.277Z" style="fill:#fff;stroke:#fff;stroke-width:20.83px;"/></g><g id="HANDS"><circle cx="1387.352" cy="1254.723" r="34.324" style="fill:#fff;stroke:#fff;stroke-width:20.83px;"/><path d="M1387.352,1254.723l-0,-245.314" style="fill:none;stroke:#fff;stroke-width:62.5px;"/><path d="M1387.352,1254.723l119.412,70.001" style="fill:none;stroke:#fff;stroke-width:62.5px;"/></g><path id="POWER-TOP" serif:id="POWER TOP" d="M1414.506,609.85l0,304.341c0,14.987 -12.167,27.154 -27.154,27.154c-14.987,0 -27.154,-12.167 -27.154,-27.154l0,-304.341c0,-14.987 12.167,-27.154 27.154,-27.154c14.987,0 27.154,12.167 27.154,27.154Z" style="fill:#fff;stroke:#fff;stroke-width:20.83px;"/></g></g></g></svg>