<?xml version="1.0" encoding="UTF-8" standalone="no"?><!DOCTYPE svg PUBLIC "-//W3C//DTD SVG 1.1//EN" "http://www.w3.org/Graphics/SVG/1.1/DTD/svg11.dtd"><svg width="100%" height="100%" viewBox="0 0 2084 2084" version="1.1" xmlns="http://www.w3.org/2000/svg" xmlns:xlink="http://www.w3.org/1999/xlink" xml:space="preserve" xmlns:serif="http://www.serif.com/" style="fill-rule:evenodd;clip-rule:evenodd;stroke-linecap:round;stroke-linejoin:round;stroke-miterlimit:1.5;"><g id="FAVICON"><path d="M2083.333,208.333l0,1666.667c0,114.982 -93.351,208.333 -208.333,208.333l-1666.667,0c-114.982,0 -208.333,-93.351 -208.333,-208.333l0,-1666.667c0,-114.982 93.351,-208.333 208.333,-208.333l1666.667,0c114.982,0 208.333,93.351 208.333,208.333Z"/><g id="CLOCK"><path d="M1255.458,379.443c-0,-8.365 4.021,-16.221 10.806,-21.113c6.786,-4.892 15.509,-6.225 23.446,-3.582c308.464,103.706 530.921,395.379 530.921,738.6c0,429.922 -349.042,778.964 -778.964,778.964c-429.922,0 -778.964,-349.042 -778.964,-778.964c0,-343.319 222.585,-635.062 531.194,-738.666c7.869,-2.617 16.517,-1.294 23.244,3.558c6.726,4.851 10.712,12.64 10.712,20.933c0.024,9.557 0.024,19.538 0.024,27.781c0,11.012 -6.981,20.814 -17.388,24.414c-273.492,95.606 -469.889,356.039 -469.889,661.981c0,386.93 314.138,701.068 701.068,701.068c386.93,0 701.068,-314.138 701.068,-701.068c0,-305.967 -196.428,-566.417 -469.95,-662.016c-10.362,-3.583 -17.313,-13.342 -17.313,-24.306c-0.013,-8.179 -0.013,-18.08 -0.013,-27.583Z" style="fill:#fff;"/><g id="NOTCHES"><path d="M1077.26,437.394l0,167.42c0,9.822 -7.974,17.797 -17.797,17.797l-35.593,0c-9.822,0 -17.797,-7.974 -17.797,-17.797l0,-167.42c0,-9.822 7.974,-17.797 17.797,-17.797l35.593,0c9.822,0 17.797,7.974 17.797,17.797Z" style="fill:#fff;"/><path d="M1077.26,1579.017l0,167.42c0,9.822 -7.974,17.797 -17.797,17.797l-35.593,0c-9.822,0 -17.797,-7.974 -17.797,-17.797l0,-167.42c0,-9.822 7.974,-17.797 17.797,-17.797l35.593,0c9.822,0 17.797,7.974 17.797,17.797Z" style="fill:#fff;"/><path d="M1696.188,1127.509l-167.42,0c-9.822,0 -17.797,-7.974 -17.797,-17.797l0,-35.593c0,-9.822 7.974,-17.797 17.797,-17.797l167.42,0c9.822,0 17.797,7.974 17.797,17.797l0,35.593c0,9.822 -7.974,17.797 -17.797,17.797Z" style="fill:#fff;"/><path d="M554.566,1127.509l-167.42,0c-9.822,0 -17.797,-7.974 -17.797,-17.797l0,-35.593c0,-9.822 7.974,-17.797 17.797,-17.797l167.42,0c9.822,0 17.797,7.974 17.797,17.797l0,35.593c0,9.822 -7.974,17.797 -17.797,17.797Z" style="fill:#fff;"/><path d="M1626.295,795.48l-144.99,83.71c-8.506,4.911 -19.4,1.992 -24.311,-6.514l-17.797,-30.825c-4.911,-8.506 -1.992,-19.4 6.514,-24.311l144.99,-83.71c8.506,-4.911 19.4,-1.992 24.311,6.514l17.797,30.825c4.911,8.506 1.992,19.4 -6.514,24.311Z" style="fill:#fff;"/><path d="M637.622,1366.291l-144.99,83.71c-8.506,4.911 -19.4,1.992 -24.311,-6.514l-17.797,-30.825c-4.911,-8.506 -1.992,-19.4 6.514,-24.311l144.99,-83.71c8.506,-4.911 19.4,-1.992 24.311,6.514l17.797,30.825c4.911,8.506 1.992,19.4 -6.514,24.311Z" style="fill:#fff;"/><path d="M1399.752,542.88l-83.71,144.99c-4.911,8.506 -15.804,11.425 -24.311,6.514l-30.825,-17.797c-8.506,-4.911 -11.425,-15.804 -6.514,-24.311l83.71,-144.99c4.911,-8.506 15.804,-11.425 24.311,-6.514l30.825,17.797c8.506,4.911 11.425,15.804 6.514,24.311Z" style="fill:#fff;"/><path d="M828.941,1531.554l-83.71,144.99c-4.911,8.506 -15.804,11.425 -24.311,6.514l-30.825,-17.797c-8.506,-4.911 -11.425,-15.804 -6.514,-24.311l83.71,-144.99c4.911,-8.506 15.804,-11.425 24.311,-6.514l30.825,17.797c8.506,4.911 11.425,15.804 6.514,24.311Z" style="fill:#fff;"/><path d="M745.231,507.287l83.71,144.99c4.911,8.506 1.992,19.4 -6.514,24.311l-30.825,17.797c-8.506,4.911 -19.4,1.992 -24.311,-6.514l-83.71,-144.99c-4.911,-8.506 -1.992,-19.4 6.514,-24.311l30.825,-17.797c8.506,-4.911 19.4,-1.992 24.311,6.514Z" style="fill:#fff;"/><path d="M1316.042,1495.961l83.71,144.99c4.911,8.506 1.992,19.4 -6.514,24.311l-30.825,17.797c-8.506,4.911 -19.4,1.992 -24.311,-6.514l-83.71,-144.99c-4.911,-8.506 -1.992,-19.4 6.514,-24.311l30.825,-17.797c8.506,-4.911 19.4,-1.992 24.311,6.514Z" style="fill:#fff;"/><path d="M492.631,733.83l144.99,83.71c8.506,4.911 11.425,15.804 6.514,24.311l-17.797,30.825c-4.911,8.506 -15.804,11.425 -24.311,6.514l-144.99,-83.71c-8.506,-4.911 -11.425,-15.804 -6.514,-24.311l17.797,-30.825c4.911,-8.506 15.804,-11.425 24.311,-6.514Z" style="fill:#fff;"/><path d="M1481.305,1304.641l144.99,83.71c8.506,4.911 11.425,15.804 6.514,24.311l-17.797,30.825c-4.911,8.506 -15.804,11.425 -24.311,6.514l-144.99,-83.71c-8.506,-4.911 -11.425,-15.804 -6.514,-24.311l17.797,-30.825c4.911,-8.506 15.804,-11.425 24.311,-6.514Z" style="fill:#fff;"/></g><g id="HANDS"><circle cx="1041.667" cy="1091.916" r="44.992" style="fill:#fff;"/><path d="M1041.667,1091.916l329.816,-329.816" style="fill:none;stroke:#fff;stroke-width:41.67px;"/><path d="M1041.667,1091.916l-177.34,-177.34" style="fill:none;stroke:#fff;stroke-width:41.67px;"/></g><path id="POWER-TOP" serif:id="POWER TOP" d="M1077.26,246.615l0,349.803c0,19.644 -15.949,35.593 -35.593,35.593c-19.644,0 -35.593,-15.949 -35.593,-35.593l0,-349.803c0,-19.644 15.949,-35.593 35.593,-35.593c19.644,0 35.593,15.949 35.593,35.593Z" style="fill:#fff;"/></g></g></svg>