<?xml version="1.0" encoding="UTF-8" standalone="no"?><!DOCTYPE svg PUBLIC "-//W3C//DTD SVG 1.1//EN" "http://www.w3.org/Graphics/SVG/1.1/DTD/svg11.dtd"><svg width="100%" height="100%" viewBox="0 0 2084 2084" version="1.1" xmlns="http://www.w3.org/2000/svg" xmlns:xlink="http://www.w3.org/1999/xlink" xml:space="preserve" xmlns:serif="http://www.serif.com/" style="fill-rule:evenodd;clip-rule:evenodd;stroke-linecap:round;stroke-linejoin:round;stroke-miterlimit:1.5;"><g id="FAVICON"><path d="M2083.333,729.167l0,625c0,402.438 -326.729,729.167 -729.167,729.167l-625,0c-402.438,0 -729.167,-326.729 -729.167,-729.167l0,-625c0,-402.438 326.729,-729.167 729.167,-729.167l625,0c402.438,0 729.167,326.729 729.167,729.167Z"/><g id="CLOCK"><path d="M1255.458,379.443c-0,-8.365 4.021,-16.221 10.806,-21.113c6.786,-4.892 15.509,-6.225 23.446,-3.582c308.464,103.706 530.921,395.379 530.921,738.6c0,429.922 -349.042,778.964 -778.964,778.964c-429.922,0 -778.964,-349.042 -778.964,-778.964c0,-343.319 222.585,-635.062 531.194,-738.666c7.869,-2.617 16.517,-1.294 23.244,3.558c6.726,4.851 10.712,12.64 10.712,20.933c0.024,9.557 0.024,19.538 0.024,27.781c0,11.012 -6.981,20.814 -17.388,24.414c-273.492,95.606 -469.889,356.039 -469.889,661.981c0,386.93 314.138,701.068 701.068,701.068c386.93,0 701.068,-314.138 701.068,-701.068c0,-305.967 -196.428,-566.417 -469.95,-662.016c-10.362,-3.583 -17.313,-13.342 -17.313,-24.306c-0.013,-8.179 -0.013,-18.08 -0.013,-27.583Z" style="fill:#fff;stroke:#fff;stroke-width:62.5px;"/><g id="NOTCHES"><path d="M1077.26,437.394l0,167.42c0,9.822 -7.974,17.797 -17.797,17.797l-35.593,0c-9.822,0 -17.797,-7.974 -17.797,-17.797l0,-167.42c0,-9.822 7.974,-17.797 17.797,-17.797l35.593,0c9.822,0 17.797,7.974 17.797,17.797Z" style="fill:#fff;stroke:#fff;stroke-width:62.5px;"/><path d="M1077.26,1579.017l0,167.42c0,9.822 -7.974,17.797 -17.797,17.797l-35.593,0c-9.822,0 -17.797,-7.974 -17.797,-17.797l0,-167.42c0,-9.822 7.974,-17.797 17.797,-17.797l35.593,0c9.822,0 17.797,7.974 17.797,17.797Z" style="fill:#fff;stroke:#fff;stroke-width:62.5px;"/><path d="M1696.188,1127.509l-167.42,0c-9.822,0 -17.797,-7.974 -17.797,-17.797l0,-35.593c0,-9.822 7.974,-17.797 17.797,-17.797l167.42,0c9.822,0 17.797,7.974 17.797,17.797l0,35.593c0,9.822 -7.974,17.797 -17.797,17.797Z" style="fill:#fff;stroke:#fff;stroke-width:62.5px;"/><path d="M554.566,1127.509l-167.42,0c-9.822,0 -17.797,-7.974 -17.797,-17.797l0,-35.593c0,-9.822 7.974,-17.797 17.797,-17.797l167.42,0c9.822,0 17.797,7.974 17.797,17.797l0,35.593c0,9.822 -7.974,17.797 -17.797,17.797Z" style="fill:#fff;stroke:#fff;stroke-width:62.5px;"/></g><g id="HANDS"><circle cx="1041.667" cy="1091.916" r="44.992" style="fill:#fff;stroke:#fff;stroke-width:62.5px;"/><path d="M1041.667,1091.916l-0,-329.816" style="fill:none;stroke:#fff;stroke-width:104.17px;"/><path d="M1041.667,1091.916l188.269,132.593" style="fill:none;stroke:#fff;stroke-width:104.17px;"/></g><path id="POWER-TOP" serif:id="POWER TOP" d="M1077.26,246.615l0,349.803c0,19.644 -15.949,35.593 -35.593,35.593c-19.644,0 -35.593,-15.949 -35.593,-35.593l0,-349.803c0,-19.644 15.949,-35.593 35.593,-35.593c19.644,0 35.593,15.949 35.593,35.593Z" style="fill:#fff;stroke:#fff;stroke-width:104.17px;"/></g></g></svg>