<?xml version="1.0" encoding="UTF-8" standalone="no"?><!DOCTYPE svg PUBLIC "-//W3C//DTD SVG 1.1//EN" "http://www.w3.org/Graphics/SVG/1.1/DTD/svg11.dtd"><svg width="100%" height="100%" viewBox="0 0 2084 2084" version="1.1" xmlns="http://www.w3.org/2000/svg" xmlns:xlink="http://www.w3.org/1999/xlink" xml:space="preserve" xmlns:serif="http://www.serif.com/" style="fill-rule:evenodd;clip-rule:evenodd;stroke-linecap:round;stroke-linejoin:round;stroke-miterlimit:1.5;"><g id="LOGO"><g id="WINDOW"><path id="GREY-TOP" serif:id="GREY TOP" d="M2061.441,123.87l0,1835.593c0,56.283 -45.695,101.977 -101.977,101.977l-1835.593,0c-56.283,0 -101.977,-45.695 -101.977,-101.977l0,-1835.593c0,-56.283 45.695,-101.977 101.977,-101.977l1835.593,0c56.283,0 101.977,45.695 101.977,101.977Z" style="fill:none;stroke:#fff;stroke-width:41.67px;"/><path d="M2061.441,123.87l0,1835.593c0,56.283 -45.695,101.977 -101.977,101.977l-1835.593,0c-56.283,0 -101.977,-45.695 -101.977,-101.977l0,-1835.593c0,-56.283 45.695,-101.977 101.977,-101.977l1835.593,0c56.283,0 101.977,45.695 101.977,101.977Z" style="fill:#2e2e2e;"/><path id="MAIN" d="M21.893,1976.921l0,-1605.881l2039.548,0l0,1605.881c0,46.648 -41.345,84.52 -92.27,84.52l-1855.007,0c-50.925,0 -92.27,-37.872 -92.27,-84.52Z" style="fill:#0c0c0c;"/><g id="CONTROLS"><g id="CLOSE" transform="matrix(310.011321,0,0,310.011321,2010.085323,269.717016)"></g><text x="1822.837px" y="269.717px" style="font-family:'OCRAExtended', 'OCR A Extended', monospace;font-size:310.011px;fill:#fff;">x</text><rect id="FULLSCREEN" x="1578.853" y="138.22" width="116.424" height="116.919" style="fill:none;stroke:#fff;stroke-width:20.42px;"/><path id="MINIMISE" d="M1260.154,196.68l136.73,0" style="fill:none;stroke:#fff;stroke-width:20.42px;"/></g></g><g id="TAB"><path id="TAB1" serif:id="TAB" d="M993.019,371.04l-971.126,0c34.879,0 63.195,-28.317 63.195,-63.195l0,-170.028c0,-32.18 26.126,-58.306 58.306,-58.306l728.124,0c32.18,0 58.306,26.126 58.306,58.306l0,170.028c0,34.879 28.317,63.195 63.195,63.195Z" style="fill:#0c0c0c;"/><g transform="matrix(163.66898,0,0,163.66898,642.714357,281.016645)"></g><text x="372.756px" y="281.017px" style="font-family:'Consolas', monospace;font-size:163.669px;fill:#fff;">cmd</text><g id="Favicon"><rect x="136.296" y="164.938" width="173.589" height="120.674" style="fill:#fff;"/><rect x="141.777" y="188.417" width="162.628" height="90.202"/><g transform="matrix(67.872723,0,0,67.872723,296.199491,250.13796)"></g><text x="146.933px" y="250.138px" style="font-family:'Consolas', monospace;font-size:67.873px;fill:#fff;">C:\_</text><rect x="290.954" y="170.082" width="13.451" height="13.451" style="fill:#687991;"/><rect x="272.409" y="170.082" width="13.451" height="13.451" style="fill:#687991;"/><rect x="254.083" y="170.082" width="13.451" height="13.451" style="fill:#687991;"/></g></g><g id="Content"><g transform="matrix(435.489096,0,0,435.489096,805.777404,819.45141)"></g><text x="87.476px" y="819.451px" style="font-family:'Consolas', monospace;font-size:435.489px;fill:#fff;">C:\</text><g id="CLOCK"><path d="M1550.019,720.133c-0,-8.443 4.095,-16.361 10.985,-21.241c6.89,-4.88 15.719,-6.114 23.683,-3.311c230.667,81.527 396.131,301.62 396.131,560.053c0,327.705 -266.055,593.76 -593.76,593.76c-327.705,0 -593.76,-266.055 -593.76,-593.76c-0,-258.535 165.594,-478.699 396.413,-560.122c7.895,-2.773 16.645,-1.546 23.472,3.292c6.828,4.838 10.885,12.687 10.885,21.054c0.029,2.828 0.029,5.608 0.029,8.243c0,10.937 -6.888,20.689 -17.195,24.346c-206.412,73.981 -354.228,271.458 -354.228,503.187c0,294.934 239.449,534.384 534.384,534.384c294.934,0 534.384,-239.449 534.384,-534.384c0,-231.753 -147.847,-429.247 -354.287,-503.227c-10.262,-3.639 -17.119,-13.347 -17.119,-24.235c-0.017,-2.571 -0.017,-5.28 -0.017,-8.039Z" style="fill:#fff;"/><g id="NOTCHES"><path d="M1414.189,755.638l0,127.615c0,7.487 -6.078,13.565 -13.565,13.565l-27.131,0c-7.487,0 -13.565,-6.078 -13.565,-13.565l0,-127.615c0,-7.487 6.078,-13.565 13.565,-13.565l27.131,0c7.487,0 13.565,6.078 13.565,13.565Z" style="fill:#fff;"/><path d="M1414.189,1625.831l0,127.615c0,7.487 -6.078,13.565 -13.565,13.565l-27.131,0c-7.487,0 -13.565,-6.078 -13.565,-13.565l0,-127.615c0,-7.487 6.078,-13.565 13.565,-13.565l27.131,0c7.487,0 13.565,6.078 13.565,13.565Z" style="fill:#fff;"/><path d="M1885.962,1281.673l-127.615,0c-7.487,0 -13.565,-6.078 -13.565,-13.565l0,-27.131c0,-7.487 6.078,-13.565 13.565,-13.565l127.615,0c7.487,0 13.565,6.078 13.565,13.565l0,27.131c0,7.487 -6.078,13.565 -13.565,13.565Z" style="fill:#fff;"/><path d="M1015.769,1281.673l-127.615,0c-7.487,0 -13.565,-6.078 -13.565,-13.565l0,-27.131c0,-7.487 6.078,-13.565 13.565,-13.565l127.615,0c7.487,0 13.565,6.078 13.565,13.565l0,27.131c0,7.487 -6.078,13.565 -13.565,13.565Z" style="fill:#fff;"/><path d="M1832.687,1028.586l-110.518,63.807c-6.484,3.743 -14.787,1.519 -18.531,-4.965l-13.565,-23.496c-3.743,-6.484 -1.519,-14.787 4.965,-18.531l110.518,-63.807c6.484,-3.743 14.787,-1.519 18.531,4.965l13.565,23.496c3.743,6.484 1.519,14.787 -4.965,18.531Z" style="fill:#fff;"/><path d="M1079.078,1463.683l-110.518,63.807c-6.484,3.743 -14.787,1.519 -18.531,-4.965l-13.565,-23.496c-3.743,-6.484 -1.519,-14.787 4.965,-18.531l110.518,-63.807c6.484,-3.743 14.787,-1.519 18.531,4.965l13.565,23.496c3.743,6.484 1.519,14.787 -4.965,18.531Z" style="fill:#fff;"/><path d="M1660.006,836.044l-63.807,110.518c-3.743,6.484 -12.047,8.709 -18.531,4.965l-23.496,-13.565c-6.484,-3.743 -8.709,-12.047 -4.965,-18.531l63.807,-110.518c3.743,-6.484 12.047,-8.709 18.531,-4.965l23.496,13.565c6.484,3.743 8.709,12.047 4.965,18.531Z" style="fill:#fff;"/><path d="M1224.909,1589.653l-63.807,110.518c-3.743,6.484 -12.047,8.709 -18.531,4.965l-23.496,-13.565c-6.484,-3.743 -8.709,-12.047 -4.965,-18.531l63.807,-110.518c3.743,-6.484 12.047,-8.709 18.531,-4.965l23.496,13.565c6.484,3.743 8.709,12.047 4.965,18.531Z" style="fill:#fff;"/><path d="M1161.102,808.913l63.807,110.518c3.743,6.484 1.519,14.787 -4.965,18.531l-23.496,13.565c-6.484,3.743 -14.787,1.519 -18.531,-4.965l-63.807,-110.518c-3.743,-6.484 -1.519,-14.787 4.965,-18.531l23.496,-13.565c6.484,-3.743 14.787,-1.519 18.531,4.965Z" style="fill:#fff;"/><path d="M1596.199,1562.523l63.807,110.518c3.743,6.484 1.519,14.787 -4.965,18.531l-23.496,13.565c-6.484,3.743 -14.787,1.519 -18.531,-4.965l-63.807,-110.518c-3.743,-6.484 -1.519,-14.787 4.965,-18.531l23.496,-13.565c6.484,-3.743 14.787,-1.519 18.531,4.965Z" style="fill:#fff;"/><path d="M968.56,981.594l110.518,63.807c6.484,3.743 8.709,12.047 4.965,18.531l-13.565,23.496c-3.743,6.484 -12.047,8.709 -18.531,4.965l-110.518,-63.807c-6.484,-3.743 -8.709,-12.047 -4.965,-18.531l13.565,-23.496c3.743,-6.484 12.047,-8.709 18.531,-4.965Z" style="fill:#fff;"/><path d="M1722.169,1416.691l110.518,63.807c6.484,3.743 8.709,12.047 4.965,18.531l-13.565,23.496c-3.743,6.484 -12.047,8.709 -18.531,4.965l-110.518,-63.807c-6.484,-3.743 -8.709,-12.047 -4.965,-18.531l13.565,-23.496c3.743,-6.484 12.047,-8.709 18.531,-4.965Z" style="fill:#fff;"/></g><g id="HANDS"><circle cx="1387.058" cy="1254.542" r="34.294" style="fill:#fff;"/><path d="M1387.058,1254.542l251.4,-251.4" style="fill:none;stroke:#fff;stroke-width:41.67px;"/><path d="M1387.058,1254.542l-135.176,-135.176" style="fill:none;stroke:#fff;stroke-width:41.67px;"/></g><path id="POWER-TOP" serif:id="POWER TOP" d="M1414.189,610.217l0,266.635c0,14.974 -12.157,27.131 -27.131,27.131c-14.974,0 -27.131,-12.157 -27.131,-27.131l0,-266.635c0,-14.974 12.157,-27.131 27.131,-27.131c14.974,0 27.131,12.157 27.131,27.131Z" style="fill:#fff;"/></g></g></g></svg>