<?xml version="1.0" encoding="UTF-8" standalone="no"?><!DOCTYPE svg PUBLIC "-//W3C//DTD SVG 1.1//EN" "http://www.w3.org/Graphics/SVG/1.1/DTD/svg11.dtd"><svg width="100%" height="100%" viewBox="0 0 2084 2084" version="1.1" xmlns="http://www.w3.org/2000/svg" xmlns:xlink="http://www.w3.org/1999/xlink" xml:space="preserve" xmlns:serif="http://www.serif.com/" style="fill-rule:evenodd;clip-rule:evenodd;stroke-linecap:round;stroke-linejoin:round;stroke-miterlimit:1.5;"><g id="WINDOW"><path id="GREY-TOP" serif:id="GREY TOP" d="M2083.333,104.167l0,1875c0,57.491 -46.676,104.167 -104.167,104.167l-1875,0c-57.491,0 -104.167,-46.676 -104.167,-104.167l0,-1875c0,-57.491 46.676,-104.167 104.167,-104.167l1875,0c57.491,0 104.167,46.676 104.167,104.167Z" style="fill:#2e2e2e;"/><path id="MAIN" d="M0,1996.999l0,-1640.356l2083.333,0l0,1640.356c0,47.649 -42.233,86.335 -94.251,86.335l-1894.831,0c-52.019,0 -94.251,-38.685 -94.251,-86.335Z" style="fill:#0c0c0c;"/><g id="CONTROLS"><g id="CLOSE" transform="matrix(316.666667,0,0,316.666667,2030.875404,253.144746)"></g><text x="1839.608px" y="253.145px" style="font-family:'OCRAExtended', 'OCR A Extended', monospace;font-size:316.667px;fill:#fff;">x</text><rect id="FULLSCREEN" x="1590.385" y="118.825" width="118.924" height="119.429" style="fill:none;stroke:#fff;stroke-width:20.42px;"/><path id="MINIMISE" d="M1264.845,178.539l139.665,0" style="fill:none;stroke:#fff;stroke-width:20.42px;"/></g></g><g id="TAB"><path id="TAB1" serif:id="TAB" d="M991.974,356.643l-991.974,0c35.627,0 64.552,-28.925 64.552,-64.552l0,-173.678c0,-32.871 26.687,-59.558 59.558,-59.558l743.755,0c32.871,0 59.558,26.687 59.558,59.558l0,173.678c0,35.627 28.925,64.552 64.552,64.552Z" style="fill:#0c0c0c;"/><g transform="matrix(167.182637,0,0,167.182637,634.14962,264.686956)"></g><text x="358.396px" y="264.687px" style="font-family:'Consolas', monospace;font-size:167.183px;fill:#fff;">cmd</text><g id="Favicon"><rect x="116.859" y="146.116" width="177.316" height="123.264" style="fill:#fff;"/><rect x="122.458" y="170.099" width="166.119" height="92.138"/><g transform="matrix(69.329819,0,0,69.329819,280.195749,233.145366)"></g><text x="127.724px" y="233.145px" style="font-family:'Consolas', monospace;font-size:69.33px;fill:#fff;">C:\_</text><rect x="274.837" y="151.371" width="13.74" height="13.74" style="fill:#687991;"/><rect x="255.894" y="151.371" width="13.74" height="13.74" style="fill:#687991;"/><rect x="237.175" y="151.371" width="13.74" height="13.74" style="fill:#687991;"/></g></g><g id="Content"><g transform="matrix(444.838207,0,0,444.838207,800.713317,814.680877)"></g><text x="66.991px" y="814.681px" style="font-family:'Consolas', monospace;font-size:444.838px;fill:#fff;">C:\</text><g id="CLOCK"><path d="M1560.932,712.442c-0,-8.436 4.088,-16.349 10.969,-21.229c6.881,-4.881 15.7,-6.124 23.662,-3.336c236.027,83.055 405.417,308.078 405.417,572.351c0,334.74 -271.767,606.507 -606.507,606.507c-334.74,0 -606.507,-271.767 -606.507,-606.507c0,-264.375 169.52,-489.469 405.699,-572.42c7.893,-2.759 16.633,-1.523 23.451,3.316c6.818,4.839 10.869,12.682 10.869,21.043c0.028,3.298 0.028,6.544 0.028,9.592c-0,10.944 -6.896,20.7 -17.212,24.352c-211.027,75.472 -362.185,277.281 -362.185,514.116c0,301.266 244.59,545.856 545.856,545.856c301.266,0 545.856,-244.59 545.856,-545.856c0,-236.86 -151.189,-438.686 -362.243,-514.155c-10.271,-3.634 -17.136,-13.347 -17.136,-24.242c-0.017,-2.984 -0.017,-6.159 -0.017,-9.389Z" style="fill:#fff;"/><g id="NOTCHES"><path d="M1422.186,749.497l0,130.355c0,7.648 -6.209,13.857 -13.857,13.857l-27.713,0c-7.648,0 -13.857,-6.209 -13.857,-13.857l0,-130.355c0,-7.648 6.209,-13.857 13.857,-13.857l27.713,0c7.648,0 13.857,6.209 13.857,13.857Z" style="fill:#fff;"/><path d="M1422.186,1638.372l0,130.355c0,7.648 -6.209,13.857 -13.857,13.857l-27.713,0c-7.648,0 -13.857,-6.209 -13.857,-13.857l0,-130.355c0,-7.648 6.209,-13.857 13.857,-13.857l27.713,0c7.648,0 13.857,6.209 13.857,13.857Z" style="fill:#fff;"/><path d="M1904.088,1286.825l-130.355,0c-7.648,0 -13.857,-6.209 -13.857,-13.857l0,-27.713c0,-7.648 6.209,-13.857 13.857,-13.857l130.355,0c7.648,0 13.857,6.209 13.857,13.857l0,27.713c0,7.648 -6.209,13.857 -13.857,13.857Z" style="fill:#fff;"/><path d="M1015.213,1286.825l-130.355,0c-7.648,0 -13.857,-6.209 -13.857,-13.857l0,-27.713c0,-7.648 6.209,-13.857 13.857,-13.857l130.355,0c7.648,0 13.857,6.209 13.857,13.857l0,27.713c0,7.648 -6.209,13.857 -13.857,13.857Z" style="fill:#fff;"/><path d="M1849.669,1028.305l-112.89,65.177c-6.623,3.824 -15.105,1.551 -18.928,-5.072l-13.857,-24c-3.824,-6.623 -1.551,-15.105 5.072,-18.928l112.89,-65.177c6.623,-3.824 15.105,-1.551 18.928,5.072l13.857,24c3.824,6.623 1.551,15.105 -5.072,18.928Z" style="fill:#fff;"/><path d="M1079.881,1472.743l-112.89,65.177c-6.623,3.824 -15.105,1.551 -18.928,-5.072l-13.857,-24c-3.824,-6.623 -1.551,-15.105 5.072,-18.928l112.89,-65.177c6.623,-3.824 15.105,-1.551 18.928,5.072l13.857,24c3.824,6.623 1.551,15.105 -5.072,18.928Z" style="fill:#fff;"/><path d="M1673.281,831.629l-65.177,112.89c-3.824,6.623 -12.305,8.896 -18.928,5.072l-24,-13.857c-6.623,-3.824 -8.896,-12.305 -5.072,-18.928l65.177,-112.89c3.824,-6.623 12.305,-8.896 18.928,-5.072l24,13.857c6.623,3.824 8.896,12.305 5.072,18.928Z" style="fill:#fff;"/><path d="M1228.843,1601.418l-65.177,112.89c-3.824,6.623 -12.305,8.896 -18.928,5.072l-24,-13.857c-6.623,-3.824 -8.896,-12.305 -5.072,-18.928l65.177,-112.89c3.824,-6.623 12.305,-8.896 18.928,-5.072l24,13.857c6.623,3.824 8.896,12.305 5.072,18.928Z" style="fill:#fff;"/><path d="M1163.666,803.916l65.177,112.89c3.824,6.623 1.551,15.105 -5.072,18.928l-24,13.857c-6.623,3.824 -15.105,1.551 -18.928,-5.072l-65.177,-112.89c-3.824,-6.623 -1.551,-15.105 5.072,-18.928l24,-13.857c6.623,-3.824 15.105,-1.551 18.928,5.072Z" style="fill:#fff;"/><path d="M1608.103,1573.704l65.177,112.89c3.824,6.623 1.551,15.105 -5.072,18.928l-24,13.857c-6.623,3.824 -15.105,1.551 -18.928,-5.072l-65.177,-112.89c-3.824,-6.623 -1.551,-15.105 5.072,-18.928l24,-13.857c6.623,-3.824 15.105,-1.551 18.928,5.072Z" style="fill:#fff;"/><path d="M966.99,980.304l112.89,65.177c6.623,3.824 8.896,12.305 5.072,18.928l-13.857,24c-3.824,6.623 -12.305,8.896 -18.928,5.072l-112.89,-65.177c-6.623,-3.824 -8.896,-12.305 -5.072,-18.928l13.857,-24c3.824,-6.623 12.305,-8.896 18.928,-5.072Z" style="fill:#fff;"/><path d="M1736.778,1424.742l112.89,65.177c6.623,3.824 8.896,12.305 5.072,18.928l-13.857,24c-3.824,6.623 -12.305,8.896 -18.928,5.072l-112.89,-65.177c-6.623,-3.824 -8.896,-12.305 -5.072,-18.928l13.857,-24c3.824,-6.623 12.305,-8.896 18.928,-5.072Z" style="fill:#fff;"/></g><g id="HANDS"><circle cx="1394.473" cy="1259.112" r="35.031" style="fill:#fff;"/><path d="M1394.473,1259.112l256.797,-256.797" style="fill:none;stroke:#fff;stroke-width:41.67px;"/><path d="M1394.473,1259.112l-138.078,-138.078" style="fill:none;stroke:#fff;stroke-width:41.67px;"/></g><path id="POWER-TOP" serif:id="POWER TOP" d="M1422.186,600.955l0,272.359c0,15.295 -12.418,27.713 -27.713,27.713c-15.295,0 -27.713,-12.418 -27.713,-27.713l0,-272.359c0,-15.295 12.418,-27.713 27.713,-27.713c15.295,0 27.713,12.418 27.713,27.713Z" style="fill:#fff;"/></g></g></svg>