<?xml version="1.0" encoding="UTF-8" standalone="no"?><!DOCTYPE svg PUBLIC "-//W3C//DTD SVG 1.1//EN" "http://www.w3.org/Graphics/SVG/1.1/DTD/svg11.dtd"><svg width="100%" height="100%" viewBox="0 0 2084 2084" version="1.1" xmlns="http://www.w3.org/2000/svg" xmlns:xlink="http://www.w3.org/1999/xlink" xml:space="preserve" xmlns:serif="http://www.serif.com/" style="fill-rule:evenodd;clip-rule:evenodd;stroke-linecap:round;stroke-linejoin:round;stroke-miterlimit:1.5;"><path d="M1754.375,1209.105c0,-11.506 9.327,-20.833 20.833,-20.833c42.376,0 138.177,0 180.553,0c11.506,0 20.833,9.327 20.833,20.833c-0,98.983 -0,521.059 -0,620.042c-0,11.506 -9.327,20.833 -20.833,20.833c-191.119,0 -1637.07,0 -1828.189,0c-11.506,-0 -20.833,-9.327 -20.833,-20.833c0,-98.983 0,-521.059 0,-620.042c0,-11.506 9.327,-20.833 20.833,-20.833c42.376,-0 138.177,-0 180.553,-0c11.506,0 20.833,9.327 20.833,20.833c0,71.738 0,308.053 0,379.791c0,11.506 9.327,20.833 20.833,20.833c162.239,-0 1221.512,-0 1383.751,-0c11.506,-0 20.833,-9.327 20.833,-20.833c0,-71.738 0,-308.053 0,-379.791Z" style="fill:none;stroke:#000;stroke-width:87.5px;"/><path d="M1754.375,1209.105c0,-11.506 9.327,-20.833 20.833,-20.833c42.376,0 138.177,0 180.553,0c11.506,0 20.833,9.327 20.833,20.833c-0,98.983 -0,521.059 -0,620.042c-0,11.506 -9.327,20.833 -20.833,20.833c-191.119,0 -1637.07,0 -1828.189,0c-11.506,-0 -20.833,-9.327 -20.833,-20.833c0,-98.983 0,-521.059 0,-620.042c0,-11.506 9.327,-20.833 20.833,-20.833c42.376,-0 138.177,-0 180.553,-0c11.506,0 20.833,9.327 20.833,20.833c0,71.738 0,308.053 0,379.791c0,11.506 9.327,20.833 20.833,20.833c162.239,-0 1221.512,-0 1383.751,-0c11.506,-0 20.833,-9.327 20.833,-20.833c0,-71.738 0,-308.053 0,-379.791Z" style="fill:#fff;"/><path d="M886.954,126.496c-0,-5.525 2.195,-10.824 6.102,-14.731c3.907,-3.907 9.206,-6.102 14.731,-6.102c56.364,0 211.395,0 267.76,0c5.525,0 10.824,2.195 14.731,6.102c3.907,3.907 6.102,9.206 6.102,14.731c0,119.057 0,712.157 0,831.214c-0,11.506 9.327,20.833 20.833,20.833c44.989,0 152.315,0 216.195,0c8.426,-0 16.023,5.076 19.247,12.861c3.225,7.785 1.442,16.746 -4.516,22.704c-91.099,91.099 -330.004,330.004 -391.741,391.741c-8.136,8.136 -21.327,8.136 -29.463,-0c-61.737,-61.737 -300.642,-300.642 -391.741,-391.741c-5.958,-5.958 -7.741,-14.919 -4.516,-22.704c3.225,-7.785 10.821,-12.861 19.247,-12.861c63.879,0 171.205,0 216.195,0c11.506,-0 20.833,-9.327 20.833,-20.833c-0,-119.057 -0,-712.157 -0,-831.214Z" style="fill:none;stroke:#000;stroke-width:87.5px;"/><path d="M886.954,126.496c-0,-5.525 2.195,-10.824 6.102,-14.731c3.907,-3.907 9.206,-6.102 14.731,-6.102c56.364,0 211.395,0 267.76,0c5.525,0 10.824,2.195 14.731,6.102c3.907,3.907 6.102,9.206 6.102,14.731c0,119.057 0,712.157 0,831.214c-0,11.506 9.327,20.833 20.833,20.833c44.989,0 152.315,0 216.195,0c8.426,-0 16.023,5.076 19.247,12.861c3.225,7.785 1.442,16.746 -4.516,22.704c-91.099,91.099 -330.004,330.004 -391.741,391.741c-8.136,8.136 -21.327,8.136 -29.463,-0c-61.737,-61.737 -300.642,-300.642 -391.741,-391.741c-5.958,-5.958 -7.741,-14.919 -4.516,-22.704c3.225,-7.785 10.821,-12.861 19.247,-12.861c63.879,0 171.205,0 216.195,0c11.506,-0 20.833,-9.327 20.833,-20.833c-0,-119.057 -0,-712.157 -0,-831.214Z" style="fill:#fff;"/></svg>