<?xml version="1.0" encoding="UTF-8" standalone="no"?><!DOCTYPE svg PUBLIC "-//W3C//DTD SVG 1.1//EN" "http://www.w3.org/Graphics/SVG/1.1/DTD/svg11.dtd"><svg width="100%" height="100%" viewBox="0 0 2084 2084" version="1.1" xmlns="http://www.w3.org/2000/svg" xmlns:xlink="http://www.w3.org/1999/xlink" xml:space="preserve" xmlns:serif="http://www.serif.com/" style="fill-rule:evenodd;clip-rule:evenodd;stroke-linejoin:round;stroke-miterlimit:2;"><path d="M1656.942,1209.105c0,-11.506 9.327,-20.833 20.833,-20.833c19.906,0 49.747,0 69.653,0c11.506,0 20.833,9.327 20.833,20.833c-0,86.53 -0,417.071 -0,503.601c0,5.525 -2.195,10.824 -6.102,14.731c-3.907,3.907 -9.206,6.102 -14.731,6.102c-164.165,-0 -1247.358,-0 -1411.523,-0c-5.525,0 -10.824,-2.195 -14.731,-6.102c-3.907,-3.907 -6.102,-9.206 -6.102,-14.731c-0,-86.53 -0,-417.071 -0,-503.601c-0,-11.506 9.327,-20.833 20.833,-20.833l69.653,-0c11.506,0 20.833,9.327 20.833,20.833c0,71.738 0,308.053 0,379.791c0,11.506 9.327,20.833 20.833,20.833c148.162,-0 1040.722,-0 1188.884,-0c11.506,-0 20.833,-9.327 20.833,-20.833c0,-71.738 0,-308.053 0,-379.791Z" style="fill:#fff;"/><path d="M924.611,438.655c-0,-5.525 2.195,-10.824 6.102,-14.731c3.907,-3.907 9.206,-6.102 14.731,-6.102l192.445,0c5.525,-0 10.824,2.195 14.731,6.102c3.907,3.907 6.102,9.206 6.102,14.731l0,618.755c-0,11.506 9.327,20.833 20.833,20.833c33.409,0 99.91,0 146.26,0c8.426,-0 16.023,5.076 19.247,12.861c3.225,7.785 1.442,16.746 -4.516,22.704c-72.456,72.456 -234.515,234.515 -284.149,284.149c-8.136,8.136 -21.327,8.136 -29.463,0c-49.635,-49.635 -211.693,-211.693 -284.149,-284.149c-5.958,-5.958 -7.741,-14.919 -4.516,-22.704c3.225,-7.785 10.821,-12.861 19.247,-12.861l146.26,-0c11.506,-0 20.833,-9.327 20.833,-20.833c-0,-98.852 -0,-519.903 -0,-618.755Z" style="fill:#fff;"/></svg>