<?xml version="1.0" encoding="UTF-8" standalone="no"?><!DOCTYPE svg PUBLIC "-//W3C//DTD SVG 1.1//EN" "http://www.w3.org/Graphics/SVG/1.1/DTD/svg11.dtd"><svg width="100%" height="100%" viewBox="0 0 2084 2084" version="1.1" xmlns="http://www.w3.org/2000/svg" xmlns:xlink="http://www.w3.org/1999/xlink" xml:space="preserve" xmlns:serif="http://www.serif.com/" style="fill-rule:evenodd;clip-rule:evenodd;stroke-linecap:round;stroke-linejoin:round;stroke-miterlimit:1.5;"><path d="M2083.333,208.333l0,1666.667c0,114.982 -93.351,208.333 -208.333,208.333l-1666.667,0c-114.982,0 -208.333,-93.351 -208.333,-208.333l0,-1666.667c0,-114.982 93.351,-208.333 208.333,-208.333l1666.667,0c114.982,0 208.333,93.351 208.333,208.333Z" style="fill:#111214;"/><g id="ICON"><path id="BORDER" d="M1798.493,438.807l0,1205.72c0,83.182 -67.533,150.715 -150.715,150.715l-1205.72,0c-83.182,0 -150.715,-67.533 -150.715,-150.715l0,-1205.72c0,-83.182 67.533,-150.715 150.715,-150.715l1205.72,0c83.182,0 150.715,67.533 150.715,150.715Z" style="fill:none;stroke:#fff;stroke-width:50px;"/><circle id="SUN" cx="771.423" cy="686.646" r="202.616" style="fill:none;stroke:#fff;stroke-width:50px;"/><g id="MOUNTAINS"><path id="LEFT-PEAK" serif:id="LEFT PEAK" d="M291.343,1471.628l412.344,-383.289l410.282,381.373" style="fill:none;stroke:#fff;stroke-width:50px;"/><path id="RIGHT-PEAK" serif:id="RIGHT PEAK" d="M983.169,1335.436l504.921,-542.563l310.404,345.164" style="fill:none;stroke:#fff;stroke-width:50px;"/></g></g><path d="M1849.897,106.297l127.139,127.139l-1741.992,1741.992l-127.139,-127.139l1741.992,-1741.992Z" style="fill:#111214;"/><path id="CROSSOUT" d="M242.841,1843.744l1604.003,-1604.003" style="fill:none;stroke:#fff;stroke-width:50px;"/></svg>