<?xml version="1.0" encoding="UTF-8" standalone="no"?><!DOCTYPE svg PUBLIC "-//W3C//DTD SVG 1.1//EN" "http://www.w3.org/Graphics/SVG/1.1/DTD/svg11.dtd"><svg width="100%" height="100%" viewBox="0 0 2084 2084" version="1.1" xmlns="http://www.w3.org/2000/svg" xmlns:xlink="http://www.w3.org/1999/xlink" xml:space="preserve" xmlns:serif="http://www.serif.com/" style="fill-rule:evenodd;clip-rule:evenodd;stroke-linejoin:round;stroke-miterlimit:2;"><g id="FAVICON"><path d="M2083.333,520.833l0,1041.667c0,287.456 -233.378,520.833 -520.833,520.833l-1041.667,0c-287.456,0 -520.833,-233.378 -520.833,-520.833l0,-1041.667c0,-287.456 233.378,-520.833 520.833,-520.833l1041.667,0c287.456,0 520.833,233.378 520.833,520.833Z" style="fill:#9333ea;"/><path d="M829.414,1120.141c-12.103,0 -23.711,4.809 -32.269,13.366c-8.558,8.559 -13.365,20.166 -13.365,32.269l0,518.912c0,23.776 -18.46,43.052 -41.232,43.052l-136.78,0c-22.773,0 -41.232,-19.276 -41.232,-43.052l0,-1286.043c0,-23.778 -18.462,-43.052 -41.234,-43.052l-62.806,0c-16.679,0 -31.713,-10.489 -38.095,-26.576c-6.381,-16.087 -2.854,-34.605 8.938,-46.918l213.663,-223.085c7.733,-8.073 18.22,-12.609 29.155,-12.609c10.937,0 21.425,4.536 29.157,12.609l213.661,223.085c11.792,12.313 15.321,30.831 8.938,46.918c-6.381,16.087 -21.417,26.576 -38.093,26.576l-62.808,0c-22.773,0 -41.232,19.275 -41.232,43.052l0,457.59c0,12.103 4.807,23.712 13.365,32.269c8.558,8.559 20.166,13.366 32.269,13.366l424.506,0c12.103,0 23.711,-4.808 32.269,-13.366c8.558,-8.558 13.365,-20.166 13.365,-32.269l0,-457.59c0,-23.778 18.462,-43.052 41.234,-43.052l136.778,0c22.773,0 41.234,19.275 41.234,43.052l0,1286.043c0,23.776 18.46,43.052 41.232,43.052l62.806,0c16.679,0 31.713,10.489 38.095,26.576c6.381,16.087 2.854,34.605 -8.938,46.918l-213.663,223.084c-7.733,8.074 -18.22,12.609 -29.155,12.609c-10.935,0 -21.423,-4.535 -29.155,-12.609l-213.663,-223.084c-11.792,-12.313 -15.321,-30.831 -8.938,-46.918c6.383,-16.087 21.417,-26.576 38.093,-26.576l62.808,0c22.773,0 41.232,-19.276 41.232,-43.052l0,-518.912c0,-12.103 -4.807,-23.71 -13.365,-32.269c-8.558,-8.558 -20.166,-13.366 -32.269,-13.366l-424.506,0Z" style="fill:#fff;"/></g></svg>