<?xml version="1.0" encoding="UTF-8" standalone="no"?><!DOCTYPE svg PUBLIC "-//W3C//DTD SVG 1.1//EN" "http://www.w3.org/Graphics/SVG/1.1/DTD/svg11.dtd"><svg width="100%" height="100%" viewBox="0 0 2084 2084" version="1.1" xmlns="http://www.w3.org/2000/svg" xmlns:xlink="http://www.w3.org/1999/xlink" xml:space="preserve" xmlns:serif="http://www.serif.com/" style="fill-rule:evenodd;clip-rule:evenodd;stroke-linejoin:round;stroke-miterlimit:2;"><path d="M2083.333,752.719l0,577.895c0,159.474 -129.473,288.947 -288.947,288.947l-1505.438,0c-159.474,0 -288.947,-129.473 -288.947,-288.947l0,-577.895c0,-159.474 129.473,-288.947 288.947,-288.947l1505.438,0c159.474,0 288.947,129.473 288.947,288.947Z" style="fill:#9333ea;"/><g id="HTML"><path d="M1717.175,1354.923l0,-626.458l99.935,0l0,526.523l237.206,0l0,99.935l-337.14,0Z" style="fill:#fff;"/><path d="M1170.619,967.981l0,386.941l-99.935,0l0,-626.458l99.935,0l0,0.205l0.449,-0.205l203.272,444.957l203.272,-444.957l0.029,0.013l0,-0.013l99.935,0l0,626.458l-99.935,0l0,-386.021l-164.506,360.1l-0.002,-0.001l0,0.001l-77.588,-0l-164.927,-361.02Z" style="fill:#fff;"/><path d="M751.208,828.4l-183.406,0l0,-99.935l466.747,0l0,99.935l-183.406,0l0,526.523l-99.935,0l0,-526.523Z" style="fill:#fff;"/><path d="M216.261,1077.492c-5.525,-0 -10.824,2.195 -14.731,6.102c-3.907,3.907 -6.102,9.206 -6.102,14.731c-0,61.32 -0,236.893 -0,236.893c-0,10.855 -8.428,19.654 -18.824,19.654l-62.442,0c-10.396,-0 -18.824,-8.799 -18.824,-19.654l0,-587.103c-0,-10.855 -8.428,-19.654 -18.824,-19.654l-28.672,0c-7.613,-0 -14.477,-4.789 -17.391,-12.133c-2.914,-7.344 -1.303,-15.798 4.08,-21.419l97.541,-101.843c3.53,-3.686 8.318,-5.756 13.31,-5.756c4.992,0 9.78,2.071 13.31,5.756l97.541,101.843c5.384,5.621 6.994,14.074 4.08,21.419c-2.914,7.344 -9.777,12.133 -17.391,12.133l-28.672,0c-10.396,0 -18.824,8.799 -18.824,19.654l-0,208.899c-0,5.525 2.195,10.824 6.102,14.731c3.907,3.907 9.206,6.102 14.731,6.102l193.794,-0c5.525,0 10.824,-2.195 14.731,-6.102c3.907,-3.907 6.102,-9.206 6.102,-14.731l0,-208.899c0,-10.855 8.428,-19.654 18.824,-19.654l62.442,-0c10.396,0 18.824,8.799 18.824,19.654l-0,587.103c0,10.855 8.428,19.654 18.824,19.654l28.672,-0c7.613,0 14.477,4.789 17.391,12.133c2.914,7.344 1.303,15.798 -4.08,21.419l-97.541,101.843c-3.53,3.686 -8.318,5.756 -13.31,5.756c-4.992,-0 -9.78,-2.071 -13.31,-5.756l-97.541,-101.843c-5.384,-5.621 -6.994,-14.074 -4.08,-21.419c2.914,-7.344 9.777,-12.133 17.391,-12.133l28.672,-0c10.396,-0 18.824,-8.799 18.824,-19.654l0,-236.893c0,-5.525 -2.195,-10.824 -6.102,-14.731c-3.907,-3.907 -9.206,-6.102 -14.731,-6.102c-44.653,0 -149.141,0 -193.794,0Z" style="fill:#fff;"/></g></svg>