<?xml version="1.0" encoding="UTF-8" standalone="no"?><!DOCTYPE svg PUBLIC "-//W3C//DTD SVG 1.1//EN" "http://www.w3.org/Graphics/SVG/1.1/DTD/svg11.dtd"><svg width="100%" height="100%" viewBox="0 0 2084 2084" version="1.1" xmlns="http://www.w3.org/2000/svg" xmlns:xlink="http://www.w3.org/1999/xlink" xml:space="preserve" xmlns:serif="http://www.serif.com/" style="fill-rule:evenodd;clip-rule:evenodd;stroke-linejoin:round;stroke-miterlimit:2;"><g id="LOGO"><path d="M2083.333,520.833l0,1041.667c0,287.456 -233.378,520.833 -520.833,520.833l-1041.667,0c-287.456,0 -520.833,-233.378 -520.833,-520.833l0,-1041.667c0,-287.456 233.378,-520.833 520.833,-520.833l1041.667,0c287.456,0 520.833,233.378 520.833,520.833Z" style="fill:#9333ea;"/><g id="HTML"><path id="L" d="M1738.009,1354.923c-5.525,0 -10.824,-2.195 -14.731,-6.102c-3.907,-3.907 -6.102,-9.206 -6.102,-14.731c-0,-95.337 -0,-489.454 -0,-584.791c-0,-5.525 2.195,-10.824 6.102,-14.731c3.907,-3.907 9.206,-6.102 14.731,-6.102c17.093,0 41.175,0 58.268,0c5.525,-0 10.824,2.195 14.731,6.102c3.907,3.907 6.102,9.206 6.102,14.731c-0,84.406 -0,400.451 -0,484.856c-0,5.525 2.195,10.824 6.102,14.731c3.907,3.907 9.206,6.102 14.731,6.102c44.948,-0 150.591,-0 195.539,-0c5.525,0 10.824,2.195 14.731,6.102c3.907,3.907 6.102,9.206 6.102,14.731c0,17.093 0,41.175 0,58.268c0,5.525 -2.195,10.824 -6.102,14.731c-3.907,3.907 -9.206,6.102 -14.731,6.102c-60.392,-0 -235.081,-0 -295.474,-0Z" style="fill:#fff;"/><path id="M" d="M1091.517,1354.923c-5.525,0 -10.824,-2.195 -14.731,-6.102c-3.907,-3.907 -6.102,-9.206 -6.102,-14.731c-0,-95.337 -0,-489.454 -0,-584.791c-0,-5.525 2.195,-10.824 6.102,-14.731c3.907,-3.907 9.206,-6.102 14.731,-6.102l152.455,0c9.443,-0 17.706,6.352 20.133,15.478c17.778,66.835 87.857,330.289 105.502,396.623c0.486,1.827 2.142,3.098 4.032,3.096c1.891,-0.003 3.543,-1.278 4.024,-3.107c17.446,-66.334 86.693,-329.632 104.294,-396.555c2.407,-9.154 10.683,-15.534 20.148,-15.534c34.298,0 114.667,0 152.836,0c5.525,-0 10.824,2.195 14.731,6.102c3.907,3.907 6.102,9.206 6.102,14.731c0,95.337 0,489.454 0,584.791c0,5.525 -2.195,10.824 -6.102,14.731c-3.907,3.907 -9.206,6.102 -14.731,6.102c-21.383,-0 -54.465,-0 -75.848,-0c-5.525,0 -10.824,-2.195 -14.731,-6.102c-3.907,-3.907 -6.102,-9.206 -6.102,-14.731l0,-438.735c0,-2.103 -1.567,-3.876 -3.653,-4.135c-2.087,-0.259 -4.039,1.077 -4.554,3.116c-24.201,95.971 -94.675,375.446 -112.176,444.848c-2.334,9.254 -10.657,15.739 -20.201,15.739c-23.305,0 -65.998,0 -89.31,0c-9.55,0 -17.878,-6.494 -20.205,-15.756c-17.44,-69.401 -87.614,-348.644 -111.757,-444.716c-0.513,-2.04 -2.465,-3.378 -4.553,-3.12c-2.087,0.258 -3.655,2.032 -3.655,4.135c-0,94.785 -0,361.918 -0,438.623c0,5.525 -2.195,10.824 -6.102,14.731c-3.907,3.907 -9.206,6.102 -14.731,6.102c-21.383,0 -54.465,0 -75.848,0Z" style="fill:#fff;fill-rule:nonzero;"/><path id="T" d="M751.208,849.233c0,-5.525 -2.195,-10.824 -6.102,-14.731c-3.907,-3.907 -9.206,-6.102 -14.731,-6.102l-141.74,0c-5.525,0 -10.824,-2.195 -14.731,-6.102c-3.907,-3.907 -6.102,-9.206 -6.102,-14.731c-0,-17.093 -0,-41.175 -0,-58.268c-0,-5.525 2.195,-10.824 6.102,-14.731c3.907,-3.907 9.206,-6.102 14.731,-6.102c77.37,0 347.71,0 425.081,0c5.525,-0 10.824,2.195 14.731,6.102c3.907,3.907 6.102,9.206 6.102,14.731c0,17.093 0,41.175 0,58.268c0,5.525 -2.195,10.824 -6.102,14.731c-3.907,3.907 -9.206,6.102 -14.731,6.102c-35.295,-0 -106.445,-0 -141.74,-0c-5.525,-0 -10.824,2.195 -14.731,6.102c-3.907,3.907 -6.102,9.206 -6.102,14.731l-0,484.856c0,5.525 -2.195,10.824 -6.102,14.731c-3.907,3.907 -9.206,6.102 -14.731,6.102c-17.093,0 -41.175,0 -58.268,0c-5.525,0 -10.824,-2.195 -14.731,-6.102c-3.907,-3.907 -6.102,-9.206 -6.102,-14.731c0,-84.406 0,-400.451 0,-484.856Z" style="fill:#fff;"/><path id="H" d="M216.261,1077.492c-5.525,-0 -10.824,2.195 -14.731,6.102c-3.907,3.907 -6.102,9.206 -6.102,14.731c-0,61.32 -0,236.893 -0,236.893c-0,10.855 -8.428,19.654 -18.824,19.654l-62.442,0c-10.396,-0 -18.824,-8.799 -18.824,-19.654l0,-587.103c-0,-10.855 -8.428,-19.654 -18.824,-19.654l-28.672,0c-7.613,-0 -14.477,-4.789 -17.391,-12.133c-2.914,-7.344 -1.303,-15.798 4.08,-21.419l97.541,-101.843c3.53,-3.686 8.318,-5.756 13.31,-5.756c4.992,0 9.78,2.071 13.31,5.756l97.541,101.843c5.384,5.621 6.994,14.074 4.08,21.419c-2.914,7.344 -9.777,12.133 -17.391,12.133l-28.672,0c-10.396,0 -18.824,8.799 -18.824,19.654l-0,208.899c-0,5.525 2.195,10.824 6.102,14.731c3.907,3.907 9.206,6.102 14.731,6.102l193.794,-0c5.525,0 10.824,-2.195 14.731,-6.102c3.907,-3.907 6.102,-9.206 6.102,-14.731l0,-208.899c0,-10.855 8.428,-19.654 18.824,-19.654l62.442,-0c10.396,0 18.824,8.799 18.824,19.654l-0,587.103c0,10.855 8.428,19.654 18.824,19.654l28.672,-0c7.613,0 14.477,4.789 17.391,12.133c2.914,7.344 1.303,15.798 -4.08,21.419l-97.541,101.843c-3.53,3.686 -8.318,5.756 -13.31,5.756c-4.992,-0 -9.78,-2.071 -13.31,-5.756l-97.541,-101.843c-5.384,-5.621 -6.994,-14.074 -4.08,-21.419c2.914,-7.344 9.777,-12.133 17.391,-12.133l28.672,-0c10.396,-0 18.824,-8.799 18.824,-19.654l0,-236.893c0,-5.525 -2.195,-10.824 -6.102,-14.731c-3.907,-3.907 -9.206,-6.102 -14.731,-6.102c-44.653,0 -149.141,0 -193.794,0Z" style="fill:#fff;"/></g></g></svg>