<?xml version="1.0" encoding="UTF-8" standalone="no"?>
<!DOCTYPE svg PUBLIC "-//W3C//DTD SVG 1.1//EN" "http://www.w3.org/Graphics/SVG/1.1/DTD/svg11.dtd">
<svg width="100%" height="100%" viewBox="0 0 500 500" version="1.1" xmlns="http://www.w3.org/2000/svg" xmlns:xlink="http://www.w3.org/1999/xlink" xml:space="preserve" xmlns:serif="http://www.serif.com/" style="fill-rule:evenodd;clip-rule:evenodd;stroke-linecap:round;stroke-linejoin:round;stroke-miterlimit:1.5;">
    <g id="LOGO">
        <g id="OUTLINE" transform="matrix(0.918831,0,0,0.918831,20.292337,20.292337)">
            <g id="Connectors">
                <g id="B-Connector" serif:id="B Connector" transform="matrix(2.968931,0,0,1,-490.411328,263.130362)">
                    <rect x="204.908" y="79.66" width="88.957" height="78.528" style="fill:rgb(77,165,255);stroke:black;stroke-width:15.35px;"/>
                </g>
                <g id="T-Connector" serif:id="T Connector" transform="matrix(2.968931,0,0,1,-490.411328,-0.977)">
                    <rect x="204.908" y="79.66" width="88.957" height="78.528" style="fill:white;stroke:black;stroke-width:15.35px;"/>
                </g>
                <g id="L-Connector" serif:id="L Connector" transform="matrix(0,2.968931,-1,0,236.869638,-490.411328)">
                    <rect x="204.908" y="79.66" width="88.957" height="78.528" style="fill:rgb(176,213,255);stroke:black;stroke-width:15.35px;"/>
                </g>
                <g id="R-Connector" serif:id="R Connector" transform="matrix(0,2.968931,-1,0,500.977,-490.411328)">
                    <rect x="204.908" y="79.66" width="88.957" height="78.528" style="fill:rgb(0,125,255);stroke:black;stroke-width:15.35px;"/>
                </g>
            </g>
            <g id="Corners">
                <g id="BL-Corner" serif:id="BL Corner" transform="matrix(1.308285,0,0,1.308285,-35.957779,226.668725)">
                    <path d="M197.239,55.089L197.239,182.451C197.239,191.238 190.106,198.371 181.319,198.371L53.957,198.371C45.17,198.371 38.037,191.238 38.037,182.451L38.037,55.089C38.037,46.302 45.17,39.169 53.957,39.169L181.319,39.169C190.106,39.169 197.239,46.302 197.239,55.089Z" style="fill:rgb(176,213,255);stroke:black;stroke-width:26px;"/>
                </g>
                <g id="TL-Corner" serif:id="TL Corner" transform="matrix(1.308285,0,0,1.308285,-35.957779,-37.438637)">
                    <path d="M197.239,55.089L197.239,182.451C197.239,191.238 190.106,198.371 181.319,198.371L53.957,198.371C45.17,198.371 38.037,191.238 38.037,182.451L38.037,55.089C38.037,46.302 45.17,39.169 53.957,39.169L181.319,39.169C190.106,39.169 197.239,46.302 197.239,55.089Z" style="fill:white;stroke:black;stroke-width:26px;"/>
                </g>
                <g id="BR-Corner" serif:id="BR Corner" transform="matrix(1.308285,0,0,1.308285,228.149583,226.668725)">
                    <path d="M197.239,55.089L197.239,182.451C197.239,191.238 190.106,198.371 181.319,198.371L53.957,198.371C45.17,198.371 38.037,191.238 38.037,182.451L38.037,55.089C38.037,46.302 45.17,39.169 53.957,39.169L181.319,39.169C190.106,39.169 197.239,46.302 197.239,55.089Z" style="fill:rgb(77,165,255);stroke:black;stroke-width:26px;"/>
                </g>
                <g id="TR-Corner" serif:id="TR Corner" transform="matrix(1.308285,0,0,1.308285,228.149583,-37.438637)">
                    <path d="M197.239,55.089L197.239,182.451C197.239,191.238 190.106,198.371 181.319,198.371L53.957,198.371C45.17,198.371 38.037,191.238 38.037,182.451L38.037,55.089C38.037,46.302 45.17,39.169 53.957,39.169L181.319,39.169C190.106,39.169 197.239,46.302 197.239,55.089Z" style="fill:rgb(0,125,255);stroke:black;stroke-width:26px;"/>
                </g>
            </g>
            <g id="Centers">
                <g id="BL-Center" serif:id="BL Center" transform="matrix(0.703276,0,0,0.703276,35.214366,298.525685)">
                    <path d="M197.239,55.089L197.239,182.451C197.239,191.238 190.106,198.371 181.319,198.371L53.957,198.371C45.17,198.371 38.037,191.238 38.037,182.451L38.037,55.089C38.037,46.302 45.17,39.169 53.957,39.169L181.319,39.169C190.106,39.169 197.239,46.302 197.239,55.089Z" style="fill:rgb(0,125,255);stroke:black;stroke-width:48.36px;"/>
                </g>
                <g id="TL-Center-" serif:id="TL Center " transform="matrix(0.703276,0,0,0.703276,35.214366,34.418323)">
                    <path d="M197.239,55.089L197.239,182.451C197.239,191.238 190.106,198.371 181.319,198.371L53.957,198.371C45.17,198.371 38.037,191.238 38.037,182.451L38.037,55.089C38.037,46.302 45.17,39.169 53.957,39.169L181.319,39.169C190.106,39.169 197.239,46.302 197.239,55.089Z" style="fill:rgb(0,125,255);stroke:black;stroke-width:48.36px;"/>
                </g>
                <g id="BR-Center" serif:id="BR Center" transform="matrix(0.703276,0,0,0.703276,299.321728,298.525685)">
                    <path d="M197.239,55.089L197.239,182.451C197.239,191.238 190.106,198.371 181.319,198.371L53.957,198.371C45.17,198.371 38.037,191.238 38.037,182.451L38.037,55.089C38.037,46.302 45.17,39.169 53.957,39.169L181.319,39.169C190.106,39.169 197.239,46.302 197.239,55.089Z" style="fill:white;stroke:black;stroke-width:48.36px;"/>
                </g>
                <g id="TR-Center-" serif:id="TR Center " transform="matrix(0.703276,0,0,0.703276,299.321728,34.418323)">
                    <path d="M197.239,55.089L197.239,182.451C197.239,191.238 190.106,198.371 181.319,198.371L53.957,198.371C45.17,198.371 38.037,191.238 38.037,182.451L38.037,55.089C38.037,46.302 45.17,39.169 53.957,39.169L181.319,39.169C190.106,39.169 197.239,46.302 197.239,55.089Z" style="fill:white;stroke:black;stroke-width:48.36px;"/>
                </g>
            </g>
        </g>
        <g id="LOGO1" serif:id="LOGO" transform="matrix(0.918831,0,0,0.918831,20.292337,20.292337)">
            <g id="Connectors1" serif:id="Connectors">
                <g id="B-Connector1" serif:id="B Connector" transform="matrix(2.968931,0,0,1,-490.411328,263.130362)">
                    <rect x="204.908" y="79.66" width="88.957" height="78.528" style="fill:rgb(77,165,255);"/>
                </g>
                <g id="T-Connector1" serif:id="T Connector" transform="matrix(2.968931,0,0,1,-490.411328,-0.977)">
                    <rect x="204.908" y="79.66" width="88.957" height="78.528" style="fill:white;"/>
                </g>
                <g id="L-Connector1" serif:id="L Connector" transform="matrix(0,2.968931,-1,0,236.869638,-490.411328)">
                    <rect x="204.908" y="79.66" width="88.957" height="78.528" style="fill:rgb(176,213,255);"/>
                </g>
                <g id="R-Connector1" serif:id="R Connector" transform="matrix(0,2.968931,-1,0,500.977,-490.411328)">
                    <rect x="204.908" y="79.66" width="88.957" height="78.528" style="fill:rgb(0,125,255);"/>
                </g>
            </g>
            <g id="Corners1" serif:id="Corners">
                <g id="BL-Corner1" serif:id="BL Corner" transform="matrix(1.308285,0,0,1.308285,-35.957779,226.668725)">
                    <path d="M197.239,55.089L197.239,182.451C197.239,191.238 190.106,198.371 181.319,198.371L53.957,198.371C45.17,198.371 38.037,191.238 38.037,182.451L38.037,55.089C38.037,46.302 45.17,39.169 53.957,39.169L181.319,39.169C190.106,39.169 197.239,46.302 197.239,55.089Z" style="fill:rgb(176,213,255);"/>
                </g>
                <g id="TL-Corner1" serif:id="TL Corner" transform="matrix(1.308285,0,0,1.308285,-35.957779,-37.438637)">
                    <path d="M197.239,55.089L197.239,182.451C197.239,191.238 190.106,198.371 181.319,198.371L53.957,198.371C45.17,198.371 38.037,191.238 38.037,182.451L38.037,55.089C38.037,46.302 45.17,39.169 53.957,39.169L181.319,39.169C190.106,39.169 197.239,46.302 197.239,55.089Z" style="fill:white;"/>
                </g>
                <g id="BR-Corner1" serif:id="BR Corner" transform="matrix(1.308285,0,0,1.308285,228.149583,226.668725)">
                    <path d="M197.239,55.089L197.239,182.451C197.239,191.238 190.106,198.371 181.319,198.371L53.957,198.371C45.17,198.371 38.037,191.238 38.037,182.451L38.037,55.089C38.037,46.302 45.17,39.169 53.957,39.169L181.319,39.169C190.106,39.169 197.239,46.302 197.239,55.089Z" style="fill:rgb(77,165,255);"/>
                </g>
                <g id="TR-Corner1" serif:id="TR Corner" transform="matrix(1.308285,0,0,1.308285,228.149583,-37.438637)">
                    <path d="M197.239,55.089L197.239,182.451C197.239,191.238 190.106,198.371 181.319,198.371L53.957,198.371C45.17,198.371 38.037,191.238 38.037,182.451L38.037,55.089C38.037,46.302 45.17,39.169 53.957,39.169L181.319,39.169C190.106,39.169 197.239,46.302 197.239,55.089Z" style="fill:rgb(0,125,255);"/>
                </g>
            </g>
            <g id="Centers1" serif:id="Centers">
                <g id="BL-Center1" serif:id="BL Center" transform="matrix(0.703276,0,0,0.703276,35.214366,298.525685)">
                    <path d="M197.239,55.089L197.239,182.451C197.239,191.238 190.106,198.371 181.319,198.371L53.957,198.371C45.17,198.371 38.037,191.238 38.037,182.451L38.037,55.089C38.037,46.302 45.17,39.169 53.957,39.169L181.319,39.169C190.106,39.169 197.239,46.302 197.239,55.089Z" style="fill:rgb(0,125,255);"/>
                </g>
                <g id="TL-Center-1" serif:id="TL Center " transform="matrix(0.703276,0,0,0.703276,35.214366,34.418323)">
                    <path d="M197.239,55.089L197.239,182.451C197.239,191.238 190.106,198.371 181.319,198.371L53.957,198.371C45.17,198.371 38.037,191.238 38.037,182.451L38.037,55.089C38.037,46.302 45.17,39.169 53.957,39.169L181.319,39.169C190.106,39.169 197.239,46.302 197.239,55.089Z" style="fill:rgb(0,125,255);"/>
                </g>
                <g id="BR-Center1" serif:id="BR Center" transform="matrix(0.703276,0,0,0.703276,299.321728,298.525685)">
                    <path d="M197.239,55.089L197.239,182.451C197.239,191.238 190.106,198.371 181.319,198.371L53.957,198.371C45.17,198.371 38.037,191.238 38.037,182.451L38.037,55.089C38.037,46.302 45.17,39.169 53.957,39.169L181.319,39.169C190.106,39.169 197.239,46.302 197.239,55.089Z" style="fill:white;"/>
                </g>
                <g id="TR-Center-1" serif:id="TR Center " transform="matrix(0.703276,0,0,0.703276,299.321728,34.418323)">
                    <path d="M197.239,55.089L197.239,182.451C197.239,191.238 190.106,198.371 181.319,198.371L53.957,198.371C45.17,198.371 38.037,191.238 38.037,182.451L38.037,55.089C38.037,46.302 45.17,39.169 53.957,39.169L181.319,39.169C190.106,39.169 197.239,46.302 197.239,55.089Z" style="fill:white;"/>
                </g>
            </g>
        </g>
    </g>
</svg>
