<?xml version="1.0" encoding="UTF-8" standalone="no"?><!DOCTYPE svg PUBLIC "-//W3C//DTD SVG 1.1//EN" "http://www.w3.org/Graphics/SVG/1.1/DTD/svg11.dtd"><svg width="100%" height="100%" viewBox="0 0 500 500" version="1.1" xmlns="http://www.w3.org/2000/svg" xmlns:xlink="http://www.w3.org/1999/xlink" xml:space="preserve" xmlns:serif="http://www.serif.com/" style="fill-rule:evenodd;clip-rule:evenodd;stroke-linecap:round;stroke-linejoin:round;stroke-miterlimit:1.5;"><g id="LOGO"><g id="OUTLINE"><g id="Connectors"><rect id="B-Connector" serif:id="B Connector" x="128.665" y="335.258" width="242.67" height="72.154" style="fill:#4da5ff;stroke:#000;stroke-width:31.25px;"/><rect id="T-Connector" serif:id="T Connector" x="128.665" y="92.588" width="242.67" height="72.154" style="fill:#fff;stroke:#000;stroke-width:31.25px;"/><path id="L-Connector" serif:id="L Connector" d="M164.742,371.335l-72.154,0l-0,-242.67l72.154,0l0,242.67Z" style="fill:#b0d5ff;stroke:#000;stroke-width:31.25px;"/><path id="R-Connector" serif:id="R Connector" d="M407.412,371.335l-72.154,0l-0,-242.67l72.154,0l0,242.67Z" style="fill:#007dff;stroke:#000;stroke-width:31.25px;"/></g><g id="Corners"><path id="BL-Corner" serif:id="BL Corner" d="M224.353,294.785l0,153.101c0,10.562 -8.575,19.138 -19.138,19.138l-153.101,0c-10.562,0 -19.138,-8.575 -19.138,-19.138l0,-153.101c0,-10.562 8.575,-19.138 19.138,-19.138l153.101,0c10.562,0 19.138,8.575 19.138,19.138Z" style="fill:#b0d5ff;stroke:#000;stroke-width:31.25px;"/><path id="TL-Corner" serif:id="TL Corner" d="M224.353,52.115l0,153.101c0,10.562 -8.575,19.138 -19.138,19.138l-153.101,0c-10.562,0 -19.138,-8.575 -19.138,-19.138l0,-153.101c0,-10.562 8.575,-19.138 19.138,-19.138l153.101,0c10.562,0 19.138,8.575 19.138,19.138Z" style="fill:#fff;stroke:#000;stroke-width:31.25px;"/><path id="BR-Corner" serif:id="BR Corner" d="M467.023,294.785l0,153.101c0,10.562 -8.575,19.138 -19.138,19.138l-153.101,0c-10.562,0 -19.138,-8.575 -19.138,-19.138l0,-153.101c0,-10.562 8.575,-19.138 19.138,-19.138l153.101,0c10.562,0 19.138,8.575 19.138,19.138Z" style="fill:#4da5ff;stroke:#000;stroke-width:31.25px;"/><path id="TR-Corner" serif:id="TR Corner" d="M467.023,52.115l0,153.101c0,10.562 -8.575,19.138 -19.138,19.138l-153.101,0c-10.562,0 -19.138,-8.575 -19.138,-19.138l0,-153.101c0,-10.562 8.575,-19.138 19.138,-19.138l153.101,0c10.562,0 19.138,8.575 19.138,19.138Z" style="fill:#007dff;stroke:#000;stroke-width:31.25px;"/></g><g id="Centers"><path id="BL-Center" serif:id="BL Center" d="M180.103,330.185l0,82.3c0,5.678 -4.61,10.288 -10.288,10.288l-82.3,0c-5.678,0 -10.288,-4.61 -10.288,-10.288l0,-82.3c0,-5.678 4.61,-10.288 10.288,-10.288l82.3,0c5.678,0 10.288,4.61 10.288,10.288Z" style="fill:#007dff;stroke:#000;stroke-width:31.25px;"/><path id="TL-Center-" serif:id="TL Center " d="M180.103,87.515l0,82.3c0,5.678 -4.61,10.288 -10.288,10.288l-82.3,0c-5.678,0 -10.288,-4.61 -10.288,-10.288l0,-82.3c0,-5.678 4.61,-10.288 10.288,-10.288l82.3,0c5.678,0 10.288,4.61 10.288,10.288Z" style="fill:#007dff;stroke:#000;stroke-width:31.25px;"/><path id="BR-Center" serif:id="BR Center" d="M422.773,330.185l0,82.3c0,5.678 -4.61,10.288 -10.288,10.288l-82.3,0c-5.678,0 -10.288,-4.61 -10.288,-10.288l0,-82.3c0,-5.678 4.61,-10.288 10.288,-10.288l82.3,0c5.678,0 10.288,4.61 10.288,10.288Z" style="fill:#fff;stroke:#000;stroke-width:31.25px;"/><path id="TR-Center-" serif:id="TR Center " d="M422.773,87.515l0,82.3c0,5.678 -4.61,10.288 -10.288,10.288l-82.3,0c-5.678,0 -10.288,-4.61 -10.288,-10.288l0,-82.3c0,-5.678 4.61,-10.288 10.288,-10.288l82.3,0c5.678,0 10.288,4.61 10.288,10.288Z" style="fill:#fff;stroke:#000;stroke-width:31.25px;"/></g></g><g id="LOGO1" serif:id="LOGO"><g id="Connectors1" serif:id="Connectors"><rect id="B-Connector1" serif:id="B Connector" x="128.665" y="335.258" width="242.67" height="72.154" style="fill:#4da5ff;"/><rect id="T-Connector1" serif:id="T Connector" x="128.665" y="92.588" width="242.67" height="72.154" style="fill:#fff;"/><path id="L-Connector1" serif:id="L Connector" d="M164.742,371.335l-72.154,0l-0,-242.67l72.154,0l0,242.67Z" style="fill:#b0d5ff;"/><path id="R-Connector1" serif:id="R Connector" d="M407.412,371.335l-72.154,0l-0,-242.67l72.154,0l0,242.67Z" style="fill:#007dff;"/></g><g id="Corners1" serif:id="Corners"><path id="BL-Corner1" serif:id="BL Corner" d="M224.353,294.785l0,153.101c0,10.562 -8.575,19.138 -19.138,19.138l-153.101,0c-10.562,0 -19.138,-8.575 -19.138,-19.138l0,-153.101c0,-10.562 8.575,-19.138 19.138,-19.138l153.101,0c10.562,0 19.138,8.575 19.138,19.138Z" style="fill:#b0d5ff;"/><path id="TL-Corner1" serif:id="TL Corner" d="M224.353,52.115l0,153.101c0,10.562 -8.575,19.138 -19.138,19.138l-153.101,0c-10.562,0 -19.138,-8.575 -19.138,-19.138l0,-153.101c0,-10.562 8.575,-19.138 19.138,-19.138l153.101,0c10.562,0 19.138,8.575 19.138,19.138Z" style="fill:#fff;"/><path id="BR-Corner1" serif:id="BR Corner" d="M467.023,294.785l0,153.101c0,10.562 -8.575,19.138 -19.138,19.138l-153.101,0c-10.562,0 -19.138,-8.575 -19.138,-19.138l0,-153.101c0,-10.562 8.575,-19.138 19.138,-19.138l153.101,0c10.562,0 19.138,8.575 19.138,19.138Z" style="fill:#4da5ff;"/><path id="TR-Corner1" serif:id="TR Corner" d="M467.023,52.115l0,153.101c0,10.562 -8.575,19.138 -19.138,19.138l-153.101,0c-10.562,0 -19.138,-8.575 -19.138,-19.138l0,-153.101c0,-10.562 8.575,-19.138 19.138,-19.138l153.101,0c10.562,0 19.138,8.575 19.138,19.138Z" style="fill:#007dff;"/></g><g id="Centers1" serif:id="Centers"><path id="BL-Center1" serif:id="BL Center" d="M180.103,330.185l0,82.3c0,5.678 -4.61,10.288 -10.288,10.288l-82.3,0c-5.678,0 -10.288,-4.61 -10.288,-10.288l0,-82.3c0,-5.678 4.61,-10.288 10.288,-10.288l82.3,0c5.678,0 10.288,4.61 10.288,10.288Z" style="fill:#007dff;"/><path id="TL-Center-1" serif:id="TL Center " d="M180.103,87.515l0,82.3c0,5.678 -4.61,10.288 -10.288,10.288l-82.3,0c-5.678,0 -10.288,-4.61 -10.288,-10.288l0,-82.3c0,-5.678 4.61,-10.288 10.288,-10.288l82.3,0c5.678,0 10.288,4.61 10.288,10.288Z" style="fill:#007dff;"/><path id="BR-Center1" serif:id="BR Center" d="M422.773,330.185l0,82.3c0,5.678 -4.61,10.288 -10.288,10.288l-82.3,0c-5.678,0 -10.288,-4.61 -10.288,-10.288l0,-82.3c0,-5.678 4.61,-10.288 10.288,-10.288l82.3,0c5.678,0 10.288,4.61 10.288,10.288Z" style="fill:#fff;"/><path id="TR-Center-1" serif:id="TR Center " d="M422.773,87.515l0,82.3c0,5.678 -4.61,10.288 -10.288,10.288l-82.3,0c-5.678,0 -10.288,-4.61 -10.288,-10.288l0,-82.3c0,-5.678 4.61,-10.288 10.288,-10.288l82.3,0c5.678,0 10.288,4.61 10.288,10.288Z" style="fill:#fff;"/></g></g></g></svg>