<?xml version="1.0" encoding="UTF-8" standalone="no"?><!DOCTYPE svg PUBLIC "-//W3C//DTD SVG 1.1//EN" "http://www.w3.org/Graphics/SVG/1.1/DTD/svg11.dtd"><svg width="100%" height="100%" viewBox="0 0 500 500" version="1.1" xmlns="http://www.w3.org/2000/svg" xmlns:xlink="http://www.w3.org/1999/xlink" xml:space="preserve" xmlns:serif="http://www.serif.com/" style="fill-rule:evenodd;clip-rule:evenodd;stroke-linecap:round;stroke-linejoin:round;stroke-miterlimit:1.5;"><rect id="BG" x="0" y="0" width="500" height="500" style="fill:url(#_Linear1);"/><g id="LOGO"><g id="OUTLINE"><g id="Connectors"><rect id="B-Connector" serif:id="B Connector" x="161.648" y="312.082" width="176.704" height="52.54" style="fill:#4da5ff;stroke:#000;stroke-width:22.76px;"/><rect id="T-Connector" serif:id="T Connector" x="161.648" y="135.378" width="176.704" height="52.54" style="fill:#fff;stroke:#000;stroke-width:22.76px;"/><path id="L-Connector" serif:id="L Connector" d="M187.918,338.352l-52.54,0l-0,-176.704l52.54,0l0,176.704Z" style="fill:#b0d5ff;stroke:#000;stroke-width:22.76px;"/><path id="R-Connector" serif:id="R Connector" d="M364.622,338.352l-52.54,0l0,-176.704l52.54,0l0,176.704Z" style="fill:#007dff;stroke:#000;stroke-width:22.76px;"/></g><g id="Corners"><path id="BL-Corner" serif:id="BL Corner" d="M231.325,282.611l0,111.483c0,7.691 -6.244,13.935 -13.935,13.935l-111.483,0c-7.691,0 -13.935,-6.244 -13.935,-13.935l0,-111.483c0,-7.691 6.244,-13.935 13.935,-13.935l111.483,0c7.691,0 13.935,6.244 13.935,13.935Z" style="fill:#b0d5ff;stroke:#000;stroke-width:22.76px;"/><path id="TL-Corner" serif:id="TL Corner" d="M231.325,105.907l0,111.483c0,7.691 -6.244,13.935 -13.935,13.935l-111.483,0c-7.691,0 -13.935,-6.244 -13.935,-13.935l0,-111.483c0,-7.691 6.244,-13.935 13.935,-13.935l111.483,0c7.691,0 13.935,6.244 13.935,13.935Z" style="fill:#fff;stroke:#000;stroke-width:22.76px;"/><path id="BR-Corner" serif:id="BR Corner" d="M408.028,282.611l0,111.483c0,7.691 -6.244,13.935 -13.935,13.935l-111.483,0c-7.691,0 -13.935,-6.244 -13.935,-13.935l0,-111.483c0,-7.691 6.244,-13.935 13.935,-13.935l111.483,0c7.691,0 13.935,6.244 13.935,13.935Z" style="fill:#4da5ff;stroke:#000;stroke-width:22.76px;"/><path id="TR-Corner" serif:id="TR Corner" d="M408.028,105.907l0,111.483c0,7.691 -6.244,13.935 -13.935,13.935l-111.483,0c-7.691,0 -13.935,-6.244 -13.935,-13.935l0,-111.483c0,-7.691 6.244,-13.935 13.935,-13.935l111.483,0c7.691,0 13.935,6.244 13.935,13.935Z" style="fill:#007dff;stroke:#000;stroke-width:22.76px;"/></g><g id="Centers"><path id="BL-Center" serif:id="BL Center" d="M199.103,308.388l0,59.928c0,4.134 -3.357,7.491 -7.491,7.491l-59.928,0c-4.134,0 -7.491,-3.357 -7.491,-7.491l0,-59.928c0,-4.134 3.357,-7.491 7.491,-7.491l59.928,0c4.134,0 7.491,3.357 7.491,7.491Z" style="fill:#007dff;stroke:#000;stroke-width:22.76px;"/><path id="TL-Center-" serif:id="TL Center " d="M199.103,131.684l0,59.928c0,4.134 -3.357,7.491 -7.491,7.491l-59.928,0c-4.134,0 -7.491,-3.357 -7.491,-7.491l0,-59.928c0,-4.134 3.357,-7.491 7.491,-7.491l59.928,0c4.134,0 7.491,3.357 7.491,7.491Z" style="fill:#007dff;stroke:#000;stroke-width:22.76px;"/><path id="BR-Center" serif:id="BR Center" d="M375.807,308.388l0,59.928c0,4.134 -3.357,7.491 -7.491,7.491l-59.928,0c-4.134,0 -7.491,-3.357 -7.491,-7.491l0,-59.928c0,-4.134 3.357,-7.491 7.491,-7.491l59.928,0c4.134,0 7.491,3.357 7.491,7.491Z" style="fill:#fff;stroke:#000;stroke-width:22.76px;"/><path id="TR-Center-" serif:id="TR Center " d="M375.807,131.684l0,59.928c0,4.134 -3.357,7.491 -7.491,7.491l-59.928,0c-4.134,0 -7.491,-3.357 -7.491,-7.491l0,-59.928c0,-4.134 3.357,-7.491 7.491,-7.491l59.928,0c4.134,0 7.491,3.357 7.491,7.491Z" style="fill:#fff;stroke:#000;stroke-width:22.76px;"/></g></g><g id="LOGO1" serif:id="LOGO"><g id="Connectors1" serif:id="Connectors"><rect id="B-Connector1" serif:id="B Connector" x="161.648" y="312.082" width="176.704" height="52.54" style="fill:#4da5ff;"/><rect id="T-Connector1" serif:id="T Connector" x="161.648" y="135.378" width="176.704" height="52.54" style="fill:#fff;"/><path id="L-Connector1" serif:id="L Connector" d="M187.918,338.352l-52.54,0l-0,-176.704l52.54,0l0,176.704Z" style="fill:#b0d5ff;"/><path id="R-Connector1" serif:id="R Connector" d="M364.622,338.352l-52.54,0l0,-176.704l52.54,0l0,176.704Z" style="fill:#007dff;"/></g><g id="Corners1" serif:id="Corners"><path id="BL-Corner1" serif:id="BL Corner" d="M231.325,282.611l0,111.483c0,7.691 -6.244,13.935 -13.935,13.935l-111.483,0c-7.691,0 -13.935,-6.244 -13.935,-13.935l0,-111.483c0,-7.691 6.244,-13.935 13.935,-13.935l111.483,0c7.691,0 13.935,6.244 13.935,13.935Z" style="fill:#b0d5ff;"/><path id="TL-Corner1" serif:id="TL Corner" d="M231.325,105.907l0,111.483c0,7.691 -6.244,13.935 -13.935,13.935l-111.483,0c-7.691,0 -13.935,-6.244 -13.935,-13.935l0,-111.483c0,-7.691 6.244,-13.935 13.935,-13.935l111.483,0c7.691,0 13.935,6.244 13.935,13.935Z" style="fill:#fff;"/><path id="BR-Corner1" serif:id="BR Corner" d="M408.028,282.611l0,111.483c0,7.691 -6.244,13.935 -13.935,13.935l-111.483,0c-7.691,0 -13.935,-6.244 -13.935,-13.935l0,-111.483c0,-7.691 6.244,-13.935 13.935,-13.935l111.483,0c7.691,0 13.935,6.244 13.935,13.935Z" style="fill:#4da5ff;"/><path id="TR-Corner1" serif:id="TR Corner" d="M408.028,105.907l0,111.483c0,7.691 -6.244,13.935 -13.935,13.935l-111.483,0c-7.691,0 -13.935,-6.244 -13.935,-13.935l0,-111.483c0,-7.691 6.244,-13.935 13.935,-13.935l111.483,0c7.691,0 13.935,6.244 13.935,13.935Z" style="fill:#007dff;"/></g><g id="Centers1" serif:id="Centers"><path id="BL-Center1" serif:id="BL Center" d="M199.103,308.388l0,59.928c0,4.134 -3.357,7.491 -7.491,7.491l-59.928,0c-4.134,0 -7.491,-3.357 -7.491,-7.491l0,-59.928c0,-4.134 3.357,-7.491 7.491,-7.491l59.928,0c4.134,0 7.491,3.357 7.491,7.491Z" style="fill:#007dff;"/><path id="TL-Center-1" serif:id="TL Center " d="M199.103,131.684l0,59.928c0,4.134 -3.357,7.491 -7.491,7.491l-59.928,0c-4.134,0 -7.491,-3.357 -7.491,-7.491l0,-59.928c0,-4.134 3.357,-7.491 7.491,-7.491l59.928,0c4.134,0 7.491,3.357 7.491,7.491Z" style="fill:#007dff;"/><path id="BR-Center1" serif:id="BR Center" d="M375.807,308.388l0,59.928c0,4.134 -3.357,7.491 -7.491,7.491l-59.928,0c-4.134,0 -7.491,-3.357 -7.491,-7.491l0,-59.928c0,-4.134 3.357,-7.491 7.491,-7.491l59.928,0c4.134,0 7.491,3.357 7.491,7.491Z" style="fill:#fff;"/><path id="TR-Center-1" serif:id="TR Center " d="M375.807,131.684l0,59.928c0,4.134 -3.357,7.491 -7.491,7.491l-59.928,0c-4.134,0 -7.491,-3.357 -7.491,-7.491l0,-59.928c0,-4.134 3.357,-7.491 7.491,-7.491l59.928,0c4.134,0 7.491,3.357 7.491,7.491Z" style="fill:#fff;"/></g></g></g><defs><linearGradient id="_Linear1" x1="0" y1="0" x2="1" y2="0" gradientUnits="userSpaceOnUse" gradientTransform="matrix(343.586972,-362.436819,362.436819,343.586972,74.169931,428.098844)"><stop offset="0" style="stop-color:#005bf0;stop-opacity:1"/><stop offset="0.47" style="stop-color:#4295fc;stop-opacity:1"/><stop offset="1" style="stop-color:#55a6ff;stop-opacity:1"/></linearGradient></defs></svg>